<svg width="63" height="63" viewBox="0 0 63 63" fill="none" xmlns="http://www.w3.org/2000/svg">
<g clip-path="url(#clip0_116_17423)">
<path d="M41.1925 33.9228L49.6734 33.9228C50.683 33.9228 51.5414 34.2761 52.2482 34.9829C52.9546 35.6897 53.3083 36.5478 53.3083 37.5578L53.3083 38.7688C53.3083 41.4444 52.3616 43.7285 50.4683 45.6217C48.5752 47.5143 46.2908 48.461 43.6154 48.461L41.1925 48.461C40.5364 48.461 39.9687 48.7009 39.4889 49.1803C39.0094 49.6599 38.7696 50.2276 38.7696 50.8839L38.7696 55.7305C38.7696 56.3867 39.0095 56.9549 39.4889 57.4345C39.9685 57.9135 40.5362 58.1538 41.1925 58.1538L43.6154 58.1538C46.2407 58.1538 48.7452 57.6422 51.1307 56.6204C53.516 55.598 55.5791 54.216 57.3209 52.4742C59.0626 50.7331 60.4442 48.6699 61.4665 46.2844C62.4888 43.8991 63 41.3939 63 38.7689L63 12.1157C63 10.0954 62.2936 8.37996 60.8801 6.96595C59.4665 5.55273 57.7498 4.84619 55.7307 4.84619L41.1916 4.84619C39.1726 4.84619 37.4564 5.55273 36.0426 6.96595C34.6294 8.37996 33.9226 10.0954 33.9226 12.1157L33.9226 26.6535C33.9226 28.6734 34.6294 30.3888 36.0436 31.8029C37.4567 33.216 39.1735 33.9228 41.1925 33.9228Z" fill="white" fill-opacity="0.05"/>
<path d="M2.29878 31.8029C3.71185 33.216 5.42821 33.9228 7.4477 33.9228L15.9284 33.9228C16.9376 33.9228 17.7968 34.2761 18.5024 34.9829C19.2094 35.6897 19.5624 36.5478 19.5624 37.5578L19.5624 38.7688C19.5624 41.4444 18.6157 43.7285 16.7234 45.6217C14.831 47.5143 12.5466 48.461 9.86993 48.461L7.44757 48.461C6.79129 48.461 6.22319 48.7009 5.74382 49.1803C5.2647 49.6599 5.02401 50.2276 5.02401 50.8839L5.02401 55.7305C5.02401 56.3867 5.26457 56.9549 5.74381 57.4345C6.22306 57.9135 6.79116 58.1538 7.44757 58.1538L9.86993 58.1538C12.4966 58.1538 15.0007 57.6422 17.3869 56.6204C19.7717 55.598 21.8342 54.216 23.576 52.4742C25.3178 50.7331 26.7001 48.6699 27.722 46.2844C28.744 43.8991 29.2559 41.3939 29.2559 38.7689L29.2559 12.1157C29.2559 10.0954 28.5488 8.37996 27.1357 6.96595C25.7225 5.55273 24.0062 4.84619 21.9868 4.84619L7.4485 4.84619C5.429 4.84619 3.71278 5.55273 2.2997 6.96595C0.885565 8.37996 0.179957 10.0954 0.179957 12.1157L0.179955 26.6535C0.179822 28.6735 0.885565 30.3888 2.29878 31.8029Z" fill="white" fill-opacity="0.05"/>
</g>
<defs>
<clipPath id="clip0_116_17423">
<rect width="63" height="63" fill="white" transform="translate(63 63) rotate(-180)"/>
</clipPath>
</defs>
</svg>
