<svg width="146" height="35" viewBox="0 0 146 35" fill="none" xmlns="http://www.w3.org/2000/svg">
<path d="M49.0001 19.348V2.65527H54.402C54.5334 2.65527 54.8039 2.65914 55.2135 2.66687C55.623 2.67459 56.0172 2.70164 56.3959 2.74801C57.7406 2.9103 58.8805 3.37785 59.8156 4.15066C60.7507 4.92348 61.4616 5.90495 61.9485 7.09508C62.4354 8.28521 62.6788 9.58739 62.6788 11.0016C62.6788 12.4159 62.4354 13.7181 61.9485 14.9082C61.4616 16.0983 60.7507 17.0798 59.8156 17.8526C58.8805 18.6254 57.7406 19.093 56.3959 19.2553C56.0172 19.3016 55.623 19.3287 55.2135 19.3364C54.8039 19.3441 54.5334 19.348 54.402 19.348H49.0001ZM52.1995 16.3804H54.402C54.6107 16.3804 54.8927 16.3765 55.2482 16.3688C55.6037 16.3534 55.9244 16.3186 56.2104 16.2645C56.9368 16.1177 57.528 15.7776 57.984 15.2444C58.4477 14.7111 58.7877 14.0697 59.0041 13.3201C59.2282 12.5704 59.3403 11.7976 59.3403 11.0016C59.3403 10.167 59.2244 9.37487 58.9925 8.62524C58.7684 7.87562 58.4245 7.24191 57.9608 6.72413C57.4971 6.20634 56.9136 5.8779 56.2104 5.73879C55.9244 5.67697 55.6037 5.64219 55.2482 5.63446C54.8927 5.62673 54.6107 5.62287 54.402 5.62287H52.1995V16.3804Z" fill="#F3F3F3"/>
<path d="M65.0072 19.348L70.1078 2.65527H74.8142L79.9148 19.348H76.6689L72.1248 4.62594H72.7276L68.253 19.348H65.0072ZM68.0676 15.8704V12.9259H76.8776V15.8704H68.0676Z" fill="#F3F3F3"/>
<path d="M83.1517 19.348V2.65527H86.3511L93.6078 13.7838V2.65527H96.8073V19.348H93.6078L86.3511 8.21952V19.348H83.1517Z" fill="#F3F3F3"/>
<path d="M107.994 19.6958C106.649 19.6958 105.467 19.4253 104.447 18.8843C103.427 18.3356 102.631 17.5667 102.059 16.5775C101.487 15.5883 101.201 14.4252 101.201 13.0882V2.67846L104.401 2.65527V13.065C104.401 13.6137 104.493 14.1122 104.679 14.5604C104.864 15.0087 105.119 15.3951 105.444 15.7197C105.776 16.0442 106.159 16.2954 106.591 16.4731C107.032 16.6432 107.499 16.7282 107.994 16.7282C108.504 16.7282 108.976 16.6393 109.408 16.4616C109.849 16.2838 110.231 16.0326 110.556 15.7081C110.881 15.3835 111.132 14.9971 111.309 14.5488C111.495 14.1006 111.588 13.606 111.588 13.065V2.65527H114.787V13.0882C114.787 14.4252 114.501 15.5883 113.929 16.5775C113.357 17.5667 112.561 18.3356 111.541 18.8843C110.521 19.4253 109.339 19.6958 107.994 19.6958Z" fill="#F3F3F3"/>
<path d="M119.183 19.348V2.65527H125.86C127.05 2.65527 128.012 2.89485 128.746 3.37399C129.48 3.8454 130.017 4.44047 130.357 5.15918C130.697 5.8779 130.867 6.60434 130.867 7.33851C130.867 8.27361 130.655 9.05029 130.23 9.66854C129.813 10.2868 129.237 10.7002 128.503 10.9089V10.3293C129.546 10.5457 130.326 11.0287 130.844 11.7783C131.37 12.5279 131.633 13.3664 131.633 14.2938C131.633 15.2907 131.447 16.1679 131.076 16.9252C130.713 17.6826 130.156 18.2777 129.407 18.7104C128.657 19.1355 127.714 19.348 126.578 19.348H119.183ZM122.382 16.3804H126.254C126.679 16.3804 127.057 16.2915 127.39 16.1138C127.722 15.9283 127.981 15.6733 128.166 15.3487C128.36 15.0164 128.456 14.6261 128.456 14.1779C128.456 13.7838 128.375 13.4321 128.213 13.123C128.051 12.8139 127.803 12.5704 127.471 12.3927C127.146 12.2072 126.741 12.1145 126.254 12.1145H122.382V16.3804ZM122.382 9.17008H125.813C126.169 9.17008 126.486 9.10825 126.764 8.9846C127.042 8.86095 127.262 8.67161 127.425 8.41658C127.587 8.15383 127.668 7.81766 127.668 7.40806C127.668 6.89801 127.51 6.4691 127.193 6.12133C126.876 5.77357 126.416 5.59969 125.813 5.59969H122.382V9.17008Z" fill="#F3F3F3"/>
<path d="M135.104 19.348V2.65527H146V5.59969H138.257V9.17008H144.609V12.1145H138.257V16.4036H146V19.348H135.104Z" fill="#F3F3F3"/>
<path d="M51.6075 32.6034C50.885 32.6034 50.2819 32.4421 49.7981 32.1196C49.3176 31.797 48.9564 31.3518 48.7144 30.7839C48.4725 30.2161 48.3516 29.5626 48.3516 28.8233C48.3516 28.0841 48.4725 27.4306 48.7144 26.8628C48.9564 26.2949 49.3176 25.8497 49.7981 25.5271C50.2819 25.2046 50.885 25.0433 51.6075 25.0433C52.4542 25.0433 53.1363 25.2651 53.6537 25.7086C54.1712 26.1487 54.5206 26.7368 54.7021 27.4726L54.2585 27.5734C54.0972 26.9316 53.7948 26.4209 53.3513 26.0412C52.9112 25.6582 52.3299 25.4667 51.6075 25.4667C50.9858 25.4667 50.4684 25.6095 50.0551 25.8951C49.6452 26.1807 49.3361 26.5772 49.1277 27.0845C48.9194 27.5885 48.8119 28.1681 48.8052 28.8233C48.7984 29.4786 48.8993 30.0582 49.1076 30.5622C49.3159 31.0662 49.6284 31.4627 50.045 31.7516C50.465 32.0372 50.9858 32.18 51.6075 32.18C52.3299 32.18 52.9112 31.9885 53.3513 31.6055C53.7948 31.2224 54.0972 30.7117 54.2585 30.0733L54.7021 30.1741C54.5206 30.9099 54.1712 31.4996 53.6537 31.9432C53.1363 32.3833 52.4542 32.6034 51.6075 32.6034Z" fill="#F3F3F3"/>
<path d="M61.6896 32.6034C60.9672 32.6034 60.364 32.4421 59.8802 32.1196C59.3997 31.797 59.0385 31.3518 58.7966 30.7839C58.5546 30.2161 58.4337 29.5626 58.4337 28.8233C58.4337 28.0841 58.5546 27.4306 58.7966 26.8628C59.0385 26.2949 59.3997 25.8497 59.8802 25.5271C60.364 25.2046 60.9672 25.0433 61.6896 25.0433C62.412 25.0433 63.0134 25.2046 63.4939 25.5271C63.9778 25.8497 64.3407 26.2949 64.5826 26.8628C64.8245 27.4306 64.9455 28.0841 64.9455 28.8233C64.9455 29.5626 64.8245 30.2161 64.5826 30.7839C64.3407 31.3518 63.9778 31.797 63.4939 32.1196C63.0134 32.4421 62.412 32.6034 61.6896 32.6034ZM61.6896 32.18C62.3112 32.18 62.8286 32.0372 63.2419 31.7516C63.6586 31.4627 63.971 31.0662 64.1794 30.5622C64.3877 30.0582 64.4919 29.4786 64.4919 28.8233C64.4919 28.1681 64.3877 27.5885 64.1794 27.0845C63.971 26.5772 63.6586 26.1807 63.2419 25.8951C62.8286 25.6095 62.3112 25.4667 61.6896 25.4667C61.068 25.4667 60.5505 25.6095 60.1372 25.8951C59.7273 26.1807 59.4182 26.5772 59.2099 27.0845C59.0015 27.5885 58.894 28.1681 58.8873 28.8233C58.8806 29.4786 58.9814 30.0582 59.1897 30.5622C59.398 31.0662 59.7105 31.4627 60.1271 31.7516C60.5472 32.0372 61.068 32.18 61.6896 32.18Z" fill="#F3F3F3"/>
<path d="M68.9781 32.4522V25.1945H69.4014L73.8165 31.6962V25.1945H74.2399V32.4522H73.8165L69.4014 25.9404V32.4522H68.9781Z" fill="#F3F3F3"/>
<path d="M78.6763 32.4522V25.1945H79.0996L83.5148 31.6962V25.1945H83.9381V32.4522H83.5148L79.0996 25.9404V32.4522H78.6763Z" fill="#F3F3F3"/>
<path d="M88.3745 32.4522V25.1945H92.8098V25.6179H88.7979V28.6117H92.2049V29.035H88.7979V32.0288H92.8098V32.4522H88.3745Z" fill="#F3F3F3"/>
<path d="M99.6358 32.6034C98.9134 32.6034 98.3103 32.4421 97.8264 32.1196C97.346 31.797 96.9848 31.3518 96.7428 30.7839C96.5009 30.2161 96.3799 29.5626 96.3799 28.8233C96.3799 28.0841 96.5009 27.4306 96.7428 26.8628C96.9848 26.2949 97.346 25.8497 97.8264 25.5271C98.3103 25.2046 98.9134 25.0433 99.6358 25.0433C100.483 25.0433 101.165 25.2651 101.682 25.7086C102.2 26.1487 102.549 26.7368 102.73 27.4726L102.287 27.5734C102.126 26.9316 101.823 26.4209 101.38 26.0412C100.94 25.6582 100.358 25.4667 99.6358 25.4667C99.0142 25.4667 98.4968 25.6095 98.0835 25.8951C97.6736 26.1807 97.3644 26.5772 97.1561 27.0845C96.9478 27.5885 96.8403 28.1681 96.8335 28.8233C96.8268 29.4786 96.9276 30.0582 97.136 30.5622C97.3443 31.0662 97.6568 31.4627 98.0734 31.7516C98.4934 32.0372 99.0142 32.18 99.6358 32.18C100.358 32.18 100.94 31.9885 101.38 31.6055C101.823 31.2224 102.126 30.7117 102.287 30.0733L102.73 30.1741C102.549 30.9099 102.2 31.4996 101.682 31.9432C101.165 32.3833 100.483 32.6034 99.6358 32.6034Z" fill="#F3F3F3"/>
<path d="M108.922 32.4522V25.6179H106.26V25.1945H112.006V25.6179H109.345V32.4522H108.922Z" fill="#F3F3F3"/>
<path d="M115.936 32.4522V25.1945H116.359V32.4522H115.936Z" fill="#F3F3F3"/>
<path d="M123.749 32.6034C123.027 32.6034 122.424 32.4421 121.94 32.1196C121.46 31.797 121.098 31.3518 120.856 30.7839C120.615 30.2161 120.494 29.5626 120.494 28.8233C120.494 28.0841 120.615 27.4306 120.856 26.8628C121.098 26.2949 121.46 25.8497 121.94 25.5271C122.424 25.2046 123.027 25.0433 123.749 25.0433C124.472 25.0433 125.073 25.2046 125.554 25.5271C126.038 25.8497 126.401 26.2949 126.642 26.8628C126.884 27.4306 127.005 28.0841 127.005 28.8233C127.005 29.5626 126.884 30.2161 126.642 30.7839C126.401 31.3518 126.038 31.797 125.554 32.1196C125.073 32.4421 124.472 32.6034 123.749 32.6034ZM123.749 32.18C124.371 32.18 124.889 32.0372 125.302 31.7516C125.718 31.4627 126.031 31.0662 126.239 30.5622C126.448 30.0582 126.552 29.4786 126.552 28.8233C126.552 28.1681 126.448 27.5885 126.239 27.0845C126.031 26.5772 125.718 26.1807 125.302 25.8951C124.889 25.6095 124.371 25.4667 123.749 25.4667C123.128 25.4667 122.61 25.6095 122.197 25.8951C121.787 26.1807 121.478 26.5772 121.27 27.0845C121.061 27.5885 120.954 28.1681 120.947 28.8233C120.94 29.4786 121.041 30.0582 121.25 30.5622C121.458 31.0662 121.77 31.4627 122.187 31.7516C122.607 32.0372 123.128 32.18 123.749 32.18Z" fill="#F3F3F3"/>
<path d="M131.038 32.4522V25.1945H131.461L135.876 31.6962V25.1945H136.3V32.4522H135.876L131.461 25.9404V32.4522H131.038Z" fill="#F3F3F3"/>
<path d="M143.145 32.6034C142.655 32.6034 142.213 32.5244 141.82 32.3665C141.43 32.2052 141.106 31.9784 140.847 31.6861C140.592 31.3938 140.42 31.0477 140.333 30.6479L140.756 30.5672C140.887 31.0645 141.166 31.4576 141.593 31.7466C142.02 32.0356 142.537 32.18 143.145 32.18C143.569 32.18 143.938 32.1128 144.254 31.9784C144.57 31.844 144.815 31.6559 144.99 31.4139C145.165 31.1687 145.252 30.8831 145.252 30.5571C145.252 30.3118 145.207 30.1069 145.116 29.9422C145.025 29.7776 144.909 29.6449 144.768 29.5441C144.63 29.4399 144.486 29.3576 144.335 29.2971C144.184 29.2366 144.049 29.1896 143.932 29.156L142.117 28.6117C141.855 28.5344 141.628 28.4403 141.437 28.3294C141.249 28.2185 141.094 28.0925 140.973 27.9514C140.852 27.8103 140.761 27.6557 140.701 27.4877C140.644 27.3197 140.615 27.14 140.615 26.9484C140.615 26.5788 140.714 26.2512 140.913 25.9656C141.114 25.6767 141.393 25.4515 141.749 25.2903C142.105 25.1256 142.517 25.0433 142.984 25.0433C143.458 25.0433 143.883 25.1307 144.259 25.3054C144.635 25.4801 144.943 25.7271 145.181 26.0463C145.423 26.3621 145.575 26.7334 145.635 27.1601L145.212 27.2408C145.165 26.888 145.04 26.5788 144.839 26.3134C144.637 26.0446 144.377 25.8363 144.058 25.6884C143.738 25.5406 143.381 25.4667 142.984 25.4667C142.604 25.4667 142.27 25.5322 141.981 25.6632C141.695 25.7943 141.472 25.9707 141.311 26.1924C141.149 26.4142 141.069 26.6628 141.069 26.9384C141.069 27.2273 141.146 27.4592 141.301 27.6339C141.459 27.8053 141.65 27.9397 141.875 28.0371C142.1 28.1312 142.315 28.2085 142.52 28.2689L144.022 28.7225C144.15 28.7595 144.306 28.8149 144.491 28.8889C144.676 28.9594 144.857 29.0619 145.035 29.1963C145.217 29.3307 145.366 29.5088 145.484 29.7306C145.605 29.949 145.665 30.2245 145.665 30.5571C145.665 30.8696 145.607 31.1519 145.489 31.4039C145.371 31.6559 145.202 31.8709 144.98 32.049C144.758 32.2271 144.493 32.3632 144.184 32.4572C143.874 32.5547 143.528 32.6034 143.145 32.6034Z" fill="#F3F3F3"/>
<g clip-path="url(#clip0_346_2476)">
<mask id="mask0_346_2476" style="mask-type:luminance" maskUnits="userSpaceOnUse" x="0" y="0" width="40" height="35">
<path d="M1.53165 10.5237C2.05603 10.5237 2.51941 10.7899 2.79535 11.1957H23.3761C25.0876 11.1957 26.6519 11.91 27.7869 13.0542C27.7869 13.0852 29.6309 14.6895 29.6309 17.5001C29.6309 20.9495 26.7989 23.8044 23.3761 23.8044C22.2377 23.8044 22.2377 22.061 23.3761 22.061C27.279 22.061 29.4774 17.2229 26.566 14.2849C26.5656 14.2853 26.5647 14.286 26.5645 14.2864C25.7413 13.4568 24.6103 12.9386 23.3761 12.9386H2.79535C1.94934 14.1814 0 13.5815 0 12.0669C0 11.2147 0.68564 10.5234 1.53165 10.5234M14.0539 5.64509C14.5788 5.64509 15.0417 5.91135 15.3176 6.31689H23.3761C27.0869 6.31689 30.5279 8.21985 32.5722 11.2699C33.2082 12.2189 31.7768 13.1941 31.1399 12.2435C29.4071 9.65825 26.5261 8.06001 23.3761 8.06001H15.3176C14.4721 9.30301 12.5227 8.70297 12.5227 7.18834C12.5227 6.3359 13.2084 5.64487 14.0539 5.64487V5.64509ZM10.5497 21.3888C11.0745 21.3888 11.5374 21.655 11.8134 22.0608H18.2751C19.414 22.0608 19.414 23.8041 18.2751 23.8041H11.8134C10.9674 25.0469 9.01801 24.4471 9.01801 22.9325C9.01801 22.0803 9.7041 21.389 10.5497 21.389V21.3888ZM16.2497 26.2678C16.7745 26.2678 17.2375 26.5338 17.5134 26.9396H23.3763C28.5165 26.9396 32.7421 22.6803 32.7421 17.4999C32.7421 16.3521 34.4721 16.3521 34.4721 17.4999C34.4721 23.6425 29.4707 28.6829 23.3763 28.6829H17.5134C16.6679 29.9257 14.7185 29.3259 14.7185 27.811C14.7185 26.9588 15.4042 26.2678 16.2497 26.2678ZM10.4774 1.43855H23.3763C32.1428 1.43855 39.3126 8.66474 39.3126 17.5001C39.3126 26.3355 32.143 33.5617 23.3763 33.5617H7.015C6.16898 34.8045 4.21964 34.2047 4.21964 32.6901C4.21964 31.1754 6.16898 30.5756 7.015 31.8184H23.3763C31.1885 31.8184 37.5826 25.3733 37.5826 17.5001C37.5826 9.62695 31.1885 3.18188 23.3763 3.18188H10.4774C9.63178 4.42466 7.68245 3.82485 7.68245 2.31021C7.68245 0.795581 9.63178 0.195764 10.4774 1.43855Z" fill="white"/>
</mask>
<g mask="url(#mask0_346_2476)">
<path d="M39.3126 0.195801H0V34.8043H39.3126V0.195801Z" fill="#E6F355"/>
</g>
</g>
<defs>
<clipPath id="clip0_346_2476">
<rect width="39.3126" height="34.6085" fill="white" transform="translate(0 0.195801)"/>
</clipPath>
</defs>
</svg>
