<svg width="214" height="51" viewBox="0 0 214 51" fill="none" xmlns="http://www.w3.org/2000/svg">
<path d="M71.8206 28.0727V3.60522H79.7386C79.9311 3.60522 80.3276 3.61089 80.928 3.62222C81.5283 3.63354 82.106 3.67319 82.6611 3.74116C84.6321 3.97903 86.3029 4.66435 87.6735 5.7971C89.0441 6.92985 90.0863 8.36844 90.7999 10.1129C91.5135 11.8573 91.8703 13.766 91.8703 15.8389C91.8703 17.9119 91.5135 19.8206 90.7999 21.565C90.0863 23.3094 89.0441 24.748 87.6735 25.8808C86.3029 27.0135 84.6321 27.6988 82.6611 27.9367C82.106 28.0047 81.5283 28.0443 80.928 28.0557C80.3276 28.067 79.9311 28.0727 79.7386 28.0727H71.8206ZM76.5102 23.7229H79.7386C80.0444 23.7229 80.4579 23.7172 80.9789 23.7059C81.5 23.6832 81.9701 23.6323 82.3892 23.553C83.454 23.3378 84.3206 22.8393 84.9889 22.0577C85.6685 21.2761 86.1669 20.336 86.4841 19.2372C86.8126 18.1384 86.9769 17.0057 86.9769 15.8389C86.9769 14.6156 86.8069 13.4545 86.4671 12.3557C86.1386 11.257 85.6345 10.3281 84.9549 9.56916C84.2752 8.81022 83.42 8.3288 82.3892 8.1249C81.9701 8.03428 81.5 7.98331 80.9789 7.97198C80.4579 7.96065 80.0444 7.95499 79.7386 7.95499H76.5102V23.7229Z" fill="#F3F3F3"/>
<path d="M95.2832 28.0727L102.759 3.60522H109.658L117.134 28.0727H112.376L105.716 6.49374H106.599L100.041 28.0727H95.2832ZM99.7689 22.9753V18.6595H112.682V22.9753H99.7689Z" fill="#F3F3F3"/>
<path d="M121.879 28.0727V3.60522H126.568L137.205 19.9168V3.60522H141.894V28.0727H137.205L126.568 11.761V28.0727H121.879Z" fill="#F3F3F3"/>
<path d="M158.291 28.5824C156.32 28.5824 154.587 28.1859 153.092 27.393C151.597 26.5888 150.43 25.4617 149.592 24.0117C148.754 22.5618 148.334 20.857 148.334 18.8974V3.63921L153.024 3.60522V18.8634C153.024 19.6676 153.16 20.3983 153.432 21.0553C153.704 21.7123 154.078 22.2786 154.553 22.7544C155.04 23.2301 155.601 23.5983 156.235 23.8588C156.881 24.108 157.566 24.2326 158.291 24.2326C159.039 24.2326 159.73 24.1024 160.364 23.8418C161.01 23.5813 161.571 23.2132 162.046 22.7374C162.522 22.2616 162.89 21.6953 163.151 21.0383C163.423 20.3813 163.559 19.6563 163.559 18.8634V3.60522H168.248V18.8974C168.248 20.857 167.829 22.5618 166.991 24.0117C166.153 25.4617 164.986 26.5888 163.491 27.393C161.995 28.1859 160.262 28.5824 158.291 28.5824Z" fill="#F3F3F3"/>
<path d="M174.691 28.0727V3.60522H184.478C186.222 3.60522 187.633 3.95638 188.709 4.65868C189.785 5.34966 190.572 6.22188 191.07 7.27534C191.569 8.3288 191.818 9.39359 191.818 10.4697C191.818 11.8403 191.507 12.9787 190.884 13.8849C190.272 14.7911 189.428 15.3972 188.352 15.703V14.8534C189.881 15.1706 191.025 15.8786 191.784 16.9774C192.554 18.0761 192.939 19.3052 192.939 20.6645C192.939 22.1257 192.668 23.4114 192.124 24.5215C191.591 25.6316 190.776 26.5038 189.677 27.1381C188.578 27.7612 187.196 28.0727 185.531 28.0727H174.691ZM179.38 23.7229H185.056C185.679 23.7229 186.234 23.5926 186.721 23.3321C187.208 23.0602 187.587 22.6864 187.859 22.2107C188.142 21.7236 188.284 21.1515 188.284 20.4946C188.284 19.9168 188.165 19.4014 187.927 18.9483C187.689 18.4952 187.327 18.1384 186.84 17.8779C186.364 17.606 185.769 17.4701 185.056 17.4701H179.38V23.7229ZM179.38 13.1543H184.41C184.931 13.1543 185.395 13.0637 185.803 12.8825C186.211 12.7012 186.534 12.4237 186.772 12.0499C187.01 11.6648 187.128 11.172 187.128 10.5716C187.128 9.82403 186.896 9.19535 186.432 8.68562C185.967 8.17588 185.293 7.92101 184.41 7.92101H179.38V13.1543Z" fill="#F3F3F3"/>
<path d="M198.027 28.0727V3.60522H213.999V7.92101H202.649V13.1543H211.96V17.4701H202.649V23.7569H213.999V28.0727H198.027Z" fill="#F3F3F3"/>
<path d="M75.6424 47.5018C74.5836 47.5018 73.6995 47.2654 72.9903 46.7926C72.2861 46.3198 71.7566 45.6672 71.402 44.8349C71.0474 44.0026 70.8701 43.0447 70.8701 41.9612C70.8701 40.8777 71.0474 39.9198 71.402 39.0874C71.7566 38.2551 72.2861 37.6025 72.9903 37.1297C73.6995 36.6569 74.5836 36.4205 75.6424 36.4205C76.8836 36.4205 77.8833 36.7456 78.6418 37.3957C79.4002 38.0409 79.9124 38.9027 80.1784 39.9813L79.5283 40.1291C79.2919 39.1884 78.8486 38.4398 78.1985 37.8833C77.5534 37.3218 76.7013 37.0411 75.6424 37.0411C74.7313 37.0411 73.9729 37.2504 73.3671 37.669C72.7662 38.0877 72.3131 38.6688 72.0078 39.4125C71.7024 40.1512 71.5448 41.0008 71.535 41.9612C71.5251 42.9216 71.6729 43.7711 71.9782 44.5099C72.2836 45.2486 72.7416 45.8298 73.3523 46.2533C73.9679 46.6719 74.7313 46.8813 75.6424 46.8813C76.7013 46.8813 77.5534 46.6005 78.1985 46.0391C78.8486 45.4776 79.2919 44.729 79.5283 43.7933L80.1784 43.941C79.9124 45.0196 79.4002 45.8839 78.6418 46.534C77.8833 47.1792 76.8836 47.5018 75.6424 47.5018Z" fill="#F3F3F3"/>
<path d="M90.4204 47.5018C89.3615 47.5018 88.4774 47.2654 87.7682 46.7926C87.064 46.3198 86.5345 45.6672 86.1799 44.8349C85.8253 44.0026 85.648 43.0447 85.648 41.9612C85.648 40.8777 85.8253 39.9198 86.1799 39.0874C86.5345 38.2551 87.064 37.6025 87.7682 37.1297C88.4774 36.6569 89.3615 36.4205 90.4204 36.4205C91.4792 36.4205 92.3608 36.6569 93.0651 37.1297C93.7743 37.6025 94.3062 38.2551 94.6608 39.0874C95.0154 39.9198 95.1927 40.8777 95.1927 41.9612C95.1927 43.0447 95.0154 44.0026 94.6608 44.8349C94.3062 45.6672 93.7743 46.3198 93.0651 46.7926C92.3608 47.2654 91.4792 47.5018 90.4204 47.5018ZM90.4204 46.8813C91.3315 46.8813 92.0899 46.6719 92.6957 46.2533C93.3064 45.8298 93.7644 45.2486 94.0698 44.5099C94.3751 43.7711 94.5278 42.9216 94.5278 41.9612C94.5278 41.0008 94.3751 40.1512 94.0698 39.4125C93.7644 38.6688 93.3064 38.0877 92.6957 37.669C92.0899 37.2504 91.3315 37.0411 90.4204 37.0411C89.5092 37.0411 88.7508 37.2504 88.145 37.669C87.5441 38.0877 87.091 38.6688 86.7857 39.4125C86.4803 40.1512 86.3227 41.0008 86.3129 41.9612C86.303 42.9216 86.4508 43.7711 86.7561 44.5099C87.0615 45.2486 87.5195 45.8298 88.1302 46.2533C88.7459 46.6719 89.5092 46.8813 90.4204 46.8813Z" fill="#F3F3F3"/>
<path d="M101.104 47.2802V36.6422H101.724L108.196 46.1721V36.6422H108.816V47.2802H108.196L101.724 37.7355V47.2802H101.104Z" fill="#F3F3F3"/>
<path d="M115.319 47.2802V36.6422H115.939L122.411 46.1721V36.6422H123.031V47.2802H122.411L115.939 37.7355V47.2802H115.319Z" fill="#F3F3F3"/>
<path d="M129.534 47.2802V36.6422H136.035V37.2627H130.154V41.6509H135.148V42.2715H130.154V46.6596H136.035V47.2802H129.534Z" fill="#F3F3F3"/>
<path d="M146.04 47.5018C144.981 47.5018 144.097 47.2654 143.388 46.7926C142.684 46.3198 142.154 45.6672 141.8 44.8349C141.445 44.0026 141.268 43.0447 141.268 41.9612C141.268 40.8777 141.445 39.9198 141.8 39.0874C142.154 38.2551 142.684 37.6025 143.388 37.1297C144.097 36.6569 144.981 36.4205 146.04 36.4205C147.281 36.4205 148.281 36.7456 149.04 37.3957C149.798 38.0409 150.31 38.9027 150.576 39.9813L149.926 40.1291C149.69 39.1884 149.246 38.4398 148.596 37.8833C147.951 37.3218 147.099 37.0411 146.04 37.0411C145.129 37.0411 144.371 37.2504 143.765 37.669C143.164 38.0877 142.711 38.6688 142.406 39.4125C142.1 40.1512 141.943 41.0008 141.933 41.9612C141.923 42.9216 142.071 43.7711 142.376 44.5099C142.681 45.2486 143.139 45.8298 143.75 46.2533C144.366 46.6719 145.129 46.8813 146.04 46.8813C147.099 46.8813 147.951 46.6005 148.596 46.0391C149.246 45.4776 149.69 44.729 149.926 43.7933L150.576 43.941C150.31 45.0196 149.798 45.8839 149.04 46.534C148.281 47.1792 147.281 47.5018 146.04 47.5018Z" fill="#F3F3F3"/>
<path d="M159.651 47.2802V37.2627H155.75V36.6422H164.172V37.2627H160.271V47.2802H159.651Z" fill="#F3F3F3"/>
<path d="M169.932 47.2802V36.6422H170.553V47.2802H169.932Z" fill="#F3F3F3"/>
<path d="M181.385 47.5018C180.326 47.5018 179.442 47.2654 178.733 46.7926C178.028 46.3198 177.499 45.6672 177.144 44.8349C176.79 44.0026 176.613 43.0447 176.613 41.9612C176.613 40.8777 176.79 39.9198 177.144 39.0874C177.499 38.2551 178.028 37.6025 178.733 37.1297C179.442 36.6569 180.326 36.4205 181.385 36.4205C182.444 36.4205 183.325 36.6569 184.03 37.1297C184.739 37.6025 185.271 38.2551 185.625 39.0874C185.98 39.9198 186.157 40.8777 186.157 41.9612C186.157 43.0447 185.98 44.0026 185.625 44.8349C185.271 45.6672 184.739 46.3198 184.03 46.7926C183.325 47.2654 182.444 47.5018 181.385 47.5018ZM181.385 46.8813C182.296 46.8813 183.054 46.6719 183.66 46.2533C184.271 45.8298 184.729 45.2486 185.034 44.5099C185.34 43.7711 185.492 42.9216 185.492 41.9612C185.492 41.0008 185.34 40.1512 185.034 39.4125C184.729 38.6688 184.271 38.0877 183.66 37.669C183.054 37.2504 182.296 37.0411 181.385 37.0411C180.474 37.0411 179.715 37.2504 179.109 37.669C178.509 38.0877 178.056 38.6688 177.75 39.4125C177.445 40.1512 177.287 41.0008 177.277 41.9612C177.268 42.9216 177.415 43.7711 177.721 44.5099C178.026 45.2486 178.484 45.8298 179.095 46.2533C179.71 46.6719 180.474 46.8813 181.385 46.8813Z" fill="#F3F3F3"/>
<path d="M192.068 47.2802V36.6422H192.689L199.16 46.1721V36.6422H199.781V47.2802H199.16L192.689 37.7355V47.2802H192.068Z" fill="#F3F3F3"/>
<path d="M209.814 47.5018C209.095 47.5018 208.448 47.3861 207.871 47.1546C207.3 46.9182 206.825 46.5858 206.446 46.1573C206.071 45.7288 205.82 45.2215 205.692 44.6355L206.313 44.5173C206.505 45.2462 206.914 45.8224 207.539 46.2459C208.165 46.6695 208.923 46.8813 209.814 46.8813C210.435 46.8813 210.977 46.7828 211.44 46.5858C211.903 46.3888 212.262 46.113 212.518 45.7584C212.774 45.3988 212.902 44.9802 212.902 44.5025C212.902 44.143 212.836 43.8425 212.703 43.6012C212.57 43.3599 212.4 43.1653 212.193 43.0176C211.991 42.8649 211.779 42.7443 211.558 42.6556C211.336 42.567 211.139 42.498 210.967 42.4487L208.307 41.6509C207.923 41.5376 207.591 41.3997 207.31 41.2372C207.034 41.0747 206.808 40.89 206.63 40.6831C206.453 40.4763 206.32 40.2497 206.231 40.0035C206.148 39.7572 206.106 39.4937 206.106 39.213C206.106 38.6713 206.251 38.1911 206.542 37.7725C206.837 37.3489 207.246 37.0189 207.768 36.7825C208.29 36.5412 208.893 36.4205 209.578 36.4205C210.272 36.4205 210.895 36.5486 211.447 36.8047C211.999 37.0608 212.449 37.4228 212.799 37.8907C213.154 38.3536 213.375 38.8978 213.464 39.5233L212.843 39.6415C212.774 39.1244 212.592 38.6713 212.297 38.2822C212.001 37.8882 211.619 37.5828 211.152 37.3661C210.684 37.1494 210.159 37.0411 209.578 37.0411C209.021 37.0411 208.531 37.1371 208.108 37.3292C207.689 37.5213 207.362 37.7798 207.125 38.1049C206.889 38.4299 206.771 38.7944 206.771 39.1982C206.771 39.6218 206.884 39.9616 207.111 40.2177C207.342 40.4689 207.623 40.6659 207.953 40.8087C208.283 40.9466 208.598 41.0599 208.898 41.1485L211.1 41.8134C211.287 41.8676 211.516 41.9489 211.787 42.0572C212.058 42.1606 212.324 42.3108 212.585 42.5078C212.851 42.7048 213.07 42.9659 213.242 43.2909C213.419 43.6111 213.508 44.0149 213.508 44.5025C213.508 44.9605 213.422 45.3742 213.25 45.7436C213.077 46.113 212.828 46.4282 212.503 46.6892C212.178 46.9502 211.789 47.1497 211.336 47.2876C210.883 47.4304 210.376 47.5018 209.814 47.5018Z" fill="#F3F3F3"/>
<g clip-path="url(#clip0_346_2702)">
<mask id="mask0_346_2702" style="mask-type:luminance" maskUnits="userSpaceOnUse" x="0" y="0" width="58" height="50">
<path d="M2.24503 15.1381C3.01364 15.1381 3.69283 15.5283 4.0973 16.1231H34.2636C36.7723 16.1231 39.0651 17.17 40.7288 18.8472C40.7288 18.8927 43.4316 21.2442 43.4316 25.3639C43.4316 30.4197 39.2807 34.6043 34.2636 34.6043C32.595 34.6043 32.595 32.049 34.2636 32.049C39.9842 32.049 43.2066 24.9575 38.9393 20.6511C38.9386 20.6517 38.9373 20.6527 38.937 20.6534C37.7304 19.4373 36.0726 18.6777 34.2636 18.6777H4.0973C2.85725 20.4993 0 19.6202 0 17.4001C0 16.1509 1.00498 15.1377 2.24503 15.1377M20.5996 7.98728C21.3689 7.98728 22.0474 8.37756 22.4519 8.97198H34.2636C39.7027 8.97198 44.7464 11.7613 47.7428 16.2319C48.675 17.6229 46.5769 19.0523 45.6435 17.659C43.1035 13.8696 38.8807 11.527 34.2636 11.527H22.4519C21.2125 13.3489 18.3552 12.4694 18.3552 10.2493C18.3552 8.99984 19.3602 7.98695 20.5996 7.98695V7.98728ZM15.4632 31.0636C16.2325 31.0636 16.911 31.4539 17.3155 32.0487H26.7869C28.4561 32.0487 28.4561 34.604 26.7869 34.604H17.3155C16.0754 36.4256 13.2182 35.5464 13.2182 33.3263C13.2182 32.0772 14.2238 31.064 15.4632 31.064V31.0636ZM23.8181 38.2151C24.5874 38.2151 25.2659 38.605 25.6704 39.1998H34.2639C41.7981 39.1998 47.9919 32.9567 47.9919 25.3635C47.9919 23.6812 50.5276 23.6812 50.5276 25.3635C50.5276 34.3671 43.1968 41.7551 34.2639 41.7551H25.6704C24.431 43.5767 21.5737 42.6975 21.5737 40.4771C21.5737 39.228 22.5787 38.2151 23.8181 38.2151ZM15.3572 1.82153H34.2639C47.1134 1.82153 57.6226 12.4133 57.6226 25.3639C57.6226 38.3144 47.1137 48.9062 34.2639 48.9062H10.2823C9.04221 50.7278 6.18496 49.8486 6.18496 47.6285C6.18496 45.4085 9.04221 44.5293 10.2823 46.3509H34.2639C45.7147 46.3509 55.0869 36.904 55.0869 25.3639C55.0869 13.8237 45.7147 4.37683 34.2639 4.37683H15.3572C14.1178 6.19844 11.2606 5.31926 11.2606 3.09918C11.2606 0.8791 14.1178 -8.36253e-05 15.3572 1.82153Z" fill="white"/>
</mask>
<g mask="url(#mask0_346_2702)">
<path d="M57.6226 0H0V50.7276H57.6226V0Z" fill="#E6F355"/>
</g>
</g>
<defs>
<clipPath id="clip0_346_2702">
<rect width="57.6226" height="50.7276" fill="white"/>
</clipPath>
</defs>
</svg>
