<svg width="227" height="139" viewBox="0 0 227 139" fill="none" xmlns="http://www.w3.org/2000/svg">
<g opacity="0.01">
<path d="M58.5566 139C46.3973 139 35.9019 136.12 27.0704 130.361C18.3669 124.473 11.6473 116.345 6.9116 105.978C2.30387 95.4825 0 83.3232 0 69.5C0 55.6768 2.30387 43.5815 6.9116 33.2141C11.6473 22.7187 18.3669 14.5912 27.0704 8.83149C35.9019 2.94383 46.3973 0 58.5566 0C70.7159 0 81.1473 2.94383 89.8508 8.83149C98.5543 14.5912 105.21 22.7187 109.818 33.2141C114.553 43.5815 116.921 55.6768 116.921 69.5C116.921 83.3232 114.553 95.4825 109.818 105.978C105.21 116.345 98.5543 124.473 89.8508 130.361C81.1473 136.12 70.7159 139 58.5566 139ZM58.5566 120.761C65.8522 120.761 72.3158 118.713 77.9475 114.617C83.7072 110.522 88.1869 104.634 91.3867 96.9544C94.5865 89.2749 96.1865 80.1234 96.1865 69.5C96.1865 58.8766 94.5865 49.7251 91.3867 42.0456C88.1869 34.366 83.7072 28.4784 77.9475 24.3826C72.3158 20.2868 65.8522 18.2389 58.5566 18.2389C51.1331 18.2389 44.6054 20.2868 38.9738 24.3826C33.3421 28.4784 28.9263 34.366 25.7265 42.0456C22.5267 49.7251 20.9268 58.8766 20.9268 69.5C20.9268 80.1234 22.5267 89.2749 25.7265 96.9544C28.9263 104.634 33.3421 110.522 38.9738 114.617C44.6054 118.713 51.1331 120.761 58.5566 120.761Z" fill="#F3F3F3"/>
<path d="M135.417 136.696V122.105C144.12 115.193 152.44 108.218 160.375 101.178C168.311 94.1386 175.35 87.227 181.494 80.4434C187.766 73.5318 192.693 66.8121 196.277 60.2845C199.861 53.6289 201.653 47.2293 201.653 41.0856C201.653 36.9899 200.949 33.1501 199.541 29.5663C198.133 25.8545 195.829 22.9107 192.629 20.7348C189.43 18.4309 185.142 17.279 179.766 17.279C171.703 17.279 165.623 19.8389 161.527 24.9586C157.559 30.0783 155.64 36.2219 155.768 43.3895H135.993C136.121 33.918 138.105 25.9825 141.944 19.5829C145.912 13.1832 151.16 8.31952 157.687 4.99171C164.343 1.6639 171.831 0 180.15 0C192.821 0 202.933 3.58379 210.484 10.7514C218.164 17.791 222.004 27.6464 222.004 40.3177C222.004 47.8692 220.148 55.3568 216.436 62.7804C212.852 70.204 208.116 77.3715 202.229 84.2831C196.469 91.0668 190.262 97.4664 183.606 103.482C176.95 109.498 170.615 114.937 164.599 119.801H226.035V136.696H135.417Z" fill="#F3F3F3"/>
</g>
</svg>
