<svg width="232" height="142" viewBox="0 0 232 142" fill="none" xmlns="http://www.w3.org/2000/svg">
<path opacity="0.01" d="M28.2204 131.783L28.2309 131.79L28.2416 131.797C37.023 137.617 47.3861 140.5 59.2668 140.5C71.147 140.5 81.452 137.618 90.1129 131.792L90.1193 131.787L90.1256 131.783C98.7522 125.851 105.362 117.672 109.965 107.299L109.968 107.293C114.568 96.7991 116.846 84.6903 116.846 71C116.846 57.3121 114.568 45.2641 109.967 34.8927C105.365 24.3966 98.7549 16.2114 90.1194 10.4006C81.4584 4.44706 71.1508 1.5 59.2668 1.5C47.3804 1.5 37.0135 4.44809 28.2312 10.3975C19.5937 16.2083 12.9818 24.3943 8.37958 34.8919C3.77768 45.2635 1.5 57.3117 1.5 71C1.5 84.6903 3.77832 96.7991 8.37819 107.293L8.38095 107.299C12.984 117.672 19.5938 125.851 28.2204 131.783ZM92.5866 99.5233L92.5822 99.5337C89.2974 107.332 84.7071 113.293 78.8401 117.491C73.1022 121.561 66.5942 123.599 59.2668 123.599C51.8115 123.599 45.2442 121.559 39.5121 117.495C33.7649 113.296 29.1696 107.329 25.7577 99.5196C22.3569 91.611 20.6298 82.1185 20.6298 71C20.6298 59.8787 22.3578 50.4514 25.756 42.6723C29.1686 34.8599 33.7629 28.959 39.5035 24.8864L39.512 24.8804L39.5203 24.8743C45.2537 20.6873 51.8179 18.5884 59.2668 18.5884C66.585 18.5884 73.0879 20.6841 78.8257 24.8743L78.8399 24.8847L78.8544 24.8947C84.7112 28.965 89.298 34.8572 92.5822 42.6541L92.5861 42.6632L92.59 42.6723C95.9882 50.4514 97.7162 59.8787 97.7162 71C97.7162 82.1203 95.9885 91.6141 92.5866 99.5233ZM142.115 121.616L142.125 121.632L142.136 121.647C146.292 127.5 151.805 132.104 158.64 135.462C165.513 138.839 173.563 140.5 182.746 140.5C192.596 140.5 201.076 138.32 208.112 133.885C215.218 129.483 220.599 123.578 224.225 116.189C227.96 108.833 229.822 100.838 229.822 92.2265C229.822 83.248 227.963 75.1761 224.21 68.0471C220.463 60.9285 215.216 55.2805 208.483 51.1298C201.835 46.9536 194.05 44.8923 185.184 44.8923C178.133 44.8923 171.794 46.1125 166.197 48.5896L166.185 48.595C162.578 50.2293 159.453 52.165 156.83 54.4115L163.354 20.4668H218.757H220.257V18.9668V5.25414V3.75414H218.757H149.924H148.64L148.442 5.02292L137.188 77.1555L136.918 78.8867H138.67H153.675H154.643L155.042 78.0042C157.291 73.0253 160.839 68.9873 165.732 65.8795C170.575 62.8036 176.473 61.2293 183.496 61.2293C191.863 61.2293 198.576 64.0829 203.771 69.7586C208.971 75.4401 211.63 82.9426 211.63 92.4144C211.63 98.3408 210.424 103.681 208.037 108.463L208.03 108.476L208.024 108.49C205.763 113.256 202.507 117.049 198.243 119.899C194.024 122.595 188.943 123.975 182.934 123.975C174.832 123.975 168.244 121.863 163.057 117.734C157.838 113.454 154.514 107.878 153.081 100.94L152.833 99.7431H151.612H136.232H134.54L134.743 101.423C135.645 108.908 138.099 115.648 142.115 121.616Z" fill="#F3F3F3" stroke="#F3F3F3" stroke-width="3"/>
</svg>
