<svg width="240" height="139" viewBox="0 0 240 139" fill="none" xmlns="http://www.w3.org/2000/svg">
<g opacity="0.01">
<path d="M58.5566 139C46.3973 139 35.9019 136.12 27.0704 130.361C18.3669 124.473 11.6473 116.345 6.9116 105.978C2.30387 95.4825 0 83.3232 0 69.5C0 55.6768 2.30387 43.5815 6.9116 33.2141C11.6473 22.7187 18.3669 14.5912 27.0704 8.83149C35.9019 2.94383 46.3973 0 58.5566 0C70.7159 0 81.1473 2.94383 89.8508 8.83149C98.5543 14.5912 105.21 22.7187 109.818 33.2141C114.553 43.5815 116.921 55.6768 116.921 69.5C116.921 83.3232 114.553 95.4825 109.818 105.978C105.21 116.345 98.5543 124.473 89.8508 130.361C81.1473 136.12 70.7159 139 58.5566 139ZM58.5566 120.761C65.8522 120.761 72.3158 118.713 77.9475 114.617C83.7072 110.522 88.1869 104.634 91.3867 96.9544C94.5866 89.2749 96.1865 80.1234 96.1865 69.5C96.1865 58.8766 94.5866 49.7251 91.3867 42.0456C88.1869 34.366 83.7072 28.4784 77.9475 24.3826C72.3158 20.2868 65.8522 18.2389 58.5566 18.2389C51.1331 18.2389 44.6054 20.2868 38.9738 24.3826C33.3421 28.4784 28.9263 34.366 25.7265 42.0456C22.5267 49.7251 20.9268 58.8766 20.9268 69.5C20.9268 80.1234 22.5267 89.2749 25.7265 96.9544C28.9263 104.634 33.3421 110.522 38.9738 114.617C44.6054 118.713 51.1331 120.761 58.5566 120.761Z" fill="#F3F3F3"/>
<path d="M200.849 136.696V109.818H133.461V93.6906L197.585 2.30386H221.008V92.1547H239.823V109.818H221.008V136.696H200.849ZM155.54 92.1547H202.001V24.7666L155.54 92.1547Z" fill="#F3F3F3"/>
</g>
</svg>
