<svg width="223" height="136" viewBox="0 0 223 136" fill="none" xmlns="http://www.w3.org/2000/svg">
<g opacity="0.01">
<path d="M57.2445 136C45.3577 136 35.0975 133.182 26.4639 127.547C17.9554 121.786 11.3863 113.834 6.75673 103.691C2.25224 93.4217 0 81.5249 0 68C0 54.4751 2.25224 42.6409 6.75673 32.4972C11.3863 22.2284 17.9554 14.2762 26.4639 8.64088C35.0975 2.88029 45.3577 0 57.2445 0C69.1314 0 79.329 2.88029 87.8375 8.64088C96.346 14.2762 102.852 22.2284 107.357 32.4972C111.987 42.6409 114.301 54.4751 114.301 68C114.301 81.5249 111.987 93.4217 107.357 103.691C102.852 113.834 96.346 121.786 87.8375 127.547C79.329 133.182 69.1314 136 57.2445 136ZM57.2445 118.155C64.3766 118.155 70.6954 116.151 76.2009 112.144C81.8315 108.136 86.2109 102.376 89.339 94.8619C92.4671 87.3481 94.0312 78.3941 94.0312 68C94.0312 57.6059 92.4671 48.6519 89.339 41.1381C86.2109 33.6243 81.8315 27.8637 76.2009 23.8563C70.6954 19.849 64.3766 17.8453 57.2445 17.8453C49.9873 17.8453 43.6059 19.849 38.1005 23.8563C32.595 27.8637 28.2782 33.6243 25.1501 41.1381C22.0219 48.6519 20.4579 57.6059 20.4579 68C20.4579 78.3941 22.0219 87.3481 25.1501 94.8619C28.2782 102.376 32.595 108.136 38.1005 112.144C43.6059 116.151 49.9873 118.155 57.2445 118.155Z" fill="#F3F3F3"/>
<path d="M178.518 136C170.01 136 162.252 134.497 155.245 131.492C148.363 128.361 142.858 123.665 138.729 117.403C134.599 111.142 132.41 103.315 132.16 93.9226H151.867C152.117 100.936 154.494 106.884 158.999 111.768C163.628 116.527 170.135 118.906 178.518 118.906C186.526 118.906 192.657 116.715 196.912 112.331C201.166 107.823 203.293 102.25 203.293 95.6133C203.293 87.5985 200.415 81.6501 194.659 77.768C189.029 73.8858 182.084 71.9447 173.826 71.9447H164.066V55.4144H174.014C181.396 55.4144 187.339 53.6611 191.844 50.1547C196.474 46.6482 198.788 41.7017 198.788 35.3149C198.788 29.93 196.974 25.547 193.345 22.1657C189.842 18.7845 184.837 17.0939 178.331 17.0939C171.574 17.0939 166.256 19.0976 162.377 23.105C158.498 26.9871 156.371 31.8711 155.996 37.7569H136.289C136.539 30.1179 138.416 23.4807 141.919 17.8453C145.548 12.2099 150.49 7.82688 156.747 4.69613C163.003 1.56538 170.197 0 178.331 0C187.089 0 194.409 1.56538 200.29 4.69613C206.296 7.70165 210.8 11.8342 213.803 17.0939C216.931 22.2284 218.496 27.8637 218.496 34C218.496 41.0129 216.556 47.1492 212.677 52.4088C208.798 57.6685 203.606 61.1749 197.099 62.9282C204.607 64.5562 210.8 68.2505 215.68 74.011C220.56 79.6464 223 86.9724 223 95.9889C223 103.252 221.311 109.952 217.932 116.088C214.554 122.099 209.549 126.921 202.918 130.552C196.286 134.184 188.153 136 178.518 136Z" fill="#F3F3F3"/>
</g>
</svg>
