<svg width="176" height="139" viewBox="0 0 176 139" fill="none" xmlns="http://www.w3.org/2000/svg">
<g opacity="0.01">
<path d="M59.0443 139C46.7837 139 36.2009 136.12 27.2959 130.361C18.5199 124.473 11.7443 116.345 6.96916 105.978C2.32305 95.4825 0 83.3232 0 69.5C0 55.6768 2.32305 43.5815 6.96916 33.2141C11.7443 22.7187 18.5199 14.5912 27.2959 8.83149C36.2009 2.94383 46.7837 0 59.0443 0C71.3048 0 81.8231 2.94383 90.5991 8.83149C99.375 14.5912 106.086 22.7187 110.732 33.2141C115.507 43.5815 117.895 55.6768 117.895 69.5C117.895 83.3232 115.507 95.4825 110.732 105.978C106.086 116.345 99.375 124.473 90.5991 130.361C81.8231 136.12 71.3048 139 59.0443 139ZM59.0443 120.761C66.4006 120.761 72.9181 118.713 78.5966 114.617C84.4043 110.522 88.9213 104.634 92.1478 96.9544C95.3742 89.2749 96.9875 80.1234 96.9875 69.5C96.9875 58.8766 95.3742 49.7251 92.1478 42.0456C88.9213 34.366 84.4043 28.4784 78.5966 24.3826C72.9181 20.2868 66.4006 18.2389 59.0443 18.2389C51.5589 18.2389 44.9769 20.2868 39.2983 24.3826C33.6197 28.4784 29.1672 34.366 25.9408 42.0456C22.7143 49.7251 21.1011 58.8766 21.1011 69.5C21.1011 80.1234 22.7143 89.2749 25.9408 96.9544C29.1672 104.634 33.6197 110.522 39.2983 114.617C44.9769 118.713 51.5589 120.761 59.0443 120.761Z" fill="#F3F3F3"/>
<path d="M154.705 136.696V25.3425L132.83 30.3343V15.3591L162.836 2.30386H176V136.696H154.705Z" fill="#F3F3F3"/>
</g>
</svg>
