<svg width="63" height="63" viewBox="0 0 63 63" fill="none" xmlns="http://www.w3.org/2000/svg">
<g clip-path="url(#clip0_116_17418)">
<path d="M21.8075 29.0772H13.3266C12.317 29.0772 11.4586 28.7239 10.7518 28.0171C10.0454 27.3103 9.69171 26.4522 9.69171 25.4422V24.2312C9.69171 21.5556 10.6384 19.2715 12.5317 17.3783C14.4248 15.4857 16.7092 14.539 19.3846 14.539H21.8075C22.4636 14.539 23.0313 14.2991 23.5111 13.8197C23.9906 13.3401 24.2304 12.7724 24.2304 12.1161V7.26949C24.2304 6.61334 23.9905 6.04511 23.5111 5.56546C23.0315 5.08648 22.4638 4.84619 21.8075 4.84619H19.3846C16.7593 4.84619 14.2548 5.3578 11.8693 6.37955C9.48404 7.40196 7.42091 8.78402 5.6791 10.5258C3.93742 12.2669 2.55577 14.3301 1.53349 16.7156C0.511206 19.1009 0 21.6061 0 24.2311L0 50.8843C0 52.9046 0.706406 54.62 2.11988 56.034C3.53349 57.4473 5.25024 58.1538 7.26934 58.1538H21.8084C23.8274 58.1538 25.5436 57.4473 26.9574 56.034C28.3706 54.62 29.0774 52.9046 29.0774 50.8843V36.3465C29.0774 34.3266 28.3706 32.6112 26.9564 31.1971C25.5434 29.784 23.8265 29.0772 21.8075 29.0772Z" fill="white" fill-opacity="0.05"/>
<path d="M60.7012 31.1971C59.2881 29.784 57.5718 29.0772 55.5523 29.0772H47.0716C46.0624 29.0772 45.2033 28.7239 44.4976 28.0171C43.7906 27.3103 43.4376 26.4522 43.4376 25.4422V24.2312C43.4376 21.5556 44.3843 19.2715 46.2766 17.3783C48.169 15.4857 50.4534 14.539 53.1301 14.539H55.5524C56.2087 14.539 56.7768 14.2991 57.2562 13.8197C57.7353 13.3401 57.976 12.7724 57.976 12.1161V7.26949C57.976 6.61334 57.7354 6.04511 57.2562 5.56546C56.7769 5.08648 56.2088 4.84619 55.5524 4.84619H53.1301C50.5034 4.84619 47.9993 5.3578 45.6131 6.37955C43.2283 7.40196 41.1659 8.78402 39.424 10.5258C37.6822 12.2669 36.2999 14.3301 35.278 16.7156C34.256 19.1009 33.7441 21.6061 33.7441 24.2311V50.8843C33.7441 52.9046 34.4512 54.62 35.8643 56.034C37.2775 57.4473 38.9938 58.1538 41.0132 58.1538H55.5515C57.571 58.1538 59.2872 57.4473 60.7003 56.034C62.1144 54.62 62.82 52.9046 62.82 50.8843V36.3465C62.8202 34.3265 62.1144 32.6112 60.7012 31.1971Z" fill="white" fill-opacity="0.05"/>
</g>
<defs>
<clipPath id="clip0_116_17418">
<rect width="63" height="63" fill="white"/>
</clipPath>
</defs>
</svg>
