<svg width="211" height="167" viewBox="0 0 211 167" fill="none" xmlns="http://www.w3.org/2000/svg">
<g opacity="0.03">
<path d="M70.786 167C56.0873 167 43.4 163.54 32.724 156.62C22.2028 149.546 14.0798 139.782 8.35507 127.326C2.78502 114.716 0 100.108 0 83.5C0 66.8923 2.78502 52.3605 8.35507 39.9047C14.0798 27.2951 22.2028 17.5304 32.724 10.6105C43.4 3.53683 56.0873 0 70.786 0C85.4848 0 98.0947 3.53683 108.616 10.6105C119.137 17.5304 127.183 27.2951 132.753 39.9047C138.478 52.3605 141.34 66.8923 141.34 83.5C141.34 100.108 138.478 114.716 132.753 127.326C127.183 139.782 119.137 149.546 108.616 156.62C98.0947 163.54 85.4848 167 70.786 167ZM70.786 145.087C79.6053 145.087 87.4188 142.627 94.2266 137.706C101.189 132.785 106.605 125.711 110.473 116.485C114.341 107.258 116.275 96.2633 116.275 83.5C116.275 70.7366 114.341 59.7417 110.473 50.5152C106.605 41.2887 101.189 34.215 94.2266 29.2942C87.4188 24.3734 79.6053 21.913 70.786 21.913C61.8121 21.913 53.9212 24.3734 47.1133 29.2942C40.3055 34.215 34.9675 41.2887 31.0994 50.5152C27.2313 59.7417 25.2973 70.7366 25.2973 83.5C25.2973 96.2633 27.2313 107.258 31.0994 116.485C34.9675 125.711 40.3055 132.785 47.1133 137.706C53.9212 142.627 61.8121 145.087 70.786 145.087Z" fill="#F3F3F3"/>
<path d="M185.471 164.232V30.4475L159.245 36.4447V18.453L195.218 2.76795H211V164.232H185.471Z" fill="#F3F3F3"/>
</g>
</svg>
