<svg width="272" height="167" viewBox="0 0 272 167" fill="none" xmlns="http://www.w3.org/2000/svg">
<g opacity="0.03">
<path d="M70.4642 167C55.8323 167 43.2026 163.54 32.5752 156.62C22.1019 149.546 14.0158 139.782 8.31708 127.326C2.77236 114.716 0 100.108 0 83.5C0 66.8923 2.77236 52.3605 8.31708 39.9047C14.0158 27.2951 22.1019 17.5304 32.5752 10.6105C43.2026 3.53683 55.8323 0 70.4642 0C85.0961 0 97.6487 3.53683 108.122 10.6105C118.595 17.5304 126.604 27.2951 132.149 39.9047C137.848 52.3605 140.697 66.8923 140.697 83.5C140.697 100.108 137.848 114.716 132.149 127.326C126.604 139.782 118.595 149.546 108.122 156.62C97.6487 163.54 85.0961 167 70.4642 167ZM70.4642 145.087C79.2433 145.087 87.0213 142.627 93.7982 137.706C100.729 132.785 106.12 125.711 109.97 116.485C113.821 107.258 115.746 96.2634 115.746 83.5C115.746 70.7366 113.821 59.7417 109.97 50.5152C106.12 41.2887 100.729 34.215 93.7982 29.2942C87.0213 24.3734 79.2433 21.913 70.4642 21.913C61.531 21.913 53.676 24.3734 46.8991 29.2942C40.1222 34.215 34.8085 41.2887 30.958 50.5152C27.1075 59.7417 25.1823 70.7366 25.1823 83.5C25.1823 96.2634 27.1075 107.258 30.958 116.485C34.8085 125.711 40.1222 132.785 46.8991 137.706C53.676 142.627 61.531 145.087 70.4642 145.087Z" fill="#F3F3F3"/>
<path d="M162.954 164.232V146.702C173.427 138.398 183.438 130.017 192.988 121.559C202.537 113.102 211.008 104.798 218.401 96.6478C225.948 88.3439 231.878 80.2707 236.19 72.4282C240.503 64.4319 242.659 56.7431 242.659 49.3619C242.659 44.4411 241.812 39.8278 240.118 35.5221C238.424 31.0626 235.651 27.5258 231.801 24.9116C227.95 22.1436 222.791 20.7597 216.322 20.7597C206.618 20.7597 199.303 23.8352 194.374 29.9862C189.599 36.1372 187.289 43.5184 187.443 52.1298H163.647C163.801 40.7505 166.188 31.2164 170.809 23.5276C175.583 15.8389 181.898 9.99539 189.753 5.99723C197.762 1.99908 206.773 0 216.784 0C232.032 0 244.199 4.30571 253.287 12.9171C262.528 21.3748 267.148 33.2155 267.148 48.4392C267.148 57.512 264.915 66.5078 260.449 75.4268C256.136 84.3458 250.437 92.9572 243.352 101.261C236.421 109.411 228.951 117.1 220.942 124.327C212.933 131.555 205.309 138.09 198.07 143.934H272V164.232H162.954Z" fill="#F3F3F3"/>
</g>
</svg>
