<svg width="273" height="167" viewBox="0 0 273 167" fill="none" xmlns="http://www.w3.org/2000/svg">
<g opacity="0.03">
<path d="M70.0796 167C55.5276 167 42.9669 163.54 32.3975 156.62C21.9813 149.546 13.9393 139.782 8.27169 127.326C2.75723 114.716 0 100.108 0 83.5C0 66.8923 2.75723 52.3605 8.27169 39.9047C13.9393 27.2951 21.9813 17.5304 32.3975 10.6105C42.9669 3.53683 55.5276 0 70.0796 0C84.6317 0 97.1158 3.53683 107.532 10.6105C117.948 17.5304 125.914 27.2951 131.428 39.9047C137.096 52.3605 139.929 66.8923 139.929 83.5C139.929 100.108 137.096 114.716 131.428 127.326C125.914 139.782 117.948 149.546 107.532 156.62C97.1158 163.54 84.6317 167 70.0796 167ZM70.0796 145.087C78.8109 145.087 86.5464 142.627 93.2863 137.706C100.179 132.785 105.541 125.711 109.37 116.485C113.2 107.258 115.114 96.2633 115.114 83.5C115.114 70.7366 113.2 59.7417 109.37 50.5152C105.541 41.2887 100.179 34.215 93.2863 29.2942C86.5464 24.3734 78.8109 21.913 70.0796 21.913C61.1952 21.913 53.3831 24.3734 46.6432 29.2942C39.9033 34.215 34.6186 41.2887 30.7891 50.5152C26.9596 59.7417 25.0449 70.7366 25.0449 83.5C25.0449 96.2633 26.9596 107.258 30.7891 116.485C34.6186 125.711 39.9033 132.785 46.6432 137.706C53.3831 142.627 61.1952 145.087 70.0796 145.087Z" fill="#F3F3F3"/>
<path d="M218.545 167C208.128 167 198.631 165.155 190.053 161.464C181.628 157.62 174.889 151.853 169.834 144.164C164.779 136.476 162.098 126.865 161.792 115.331H185.917C186.224 123.943 189.134 131.247 194.649 137.244C200.316 143.088 208.282 146.01 218.545 146.01C228.348 146.01 235.854 143.319 241.062 137.936C246.27 132.401 248.874 125.558 248.874 117.407C248.874 107.566 245.351 100.262 238.305 95.4945C231.412 90.7274 222.91 88.3439 212.8 88.3439H200.852V68.0456H213.03C222.068 68.0456 229.344 65.8927 234.858 61.587C240.526 57.2813 243.36 51.2072 243.36 43.3646C243.36 36.7523 241.139 31.3702 236.696 27.2182C232.407 23.0663 226.28 20.9903 218.315 20.9903C210.043 20.9903 203.533 23.4507 198.785 28.3715C194.036 33.1386 191.432 39.1358 190.972 46.3632H166.847C167.153 36.983 169.451 28.8329 173.74 21.913C178.182 14.9931 184.232 9.61095 191.891 5.76657C199.55 1.92219 208.358 0 218.315 0C229.037 0 237.998 1.92219 245.198 5.76657C252.551 9.45717 258.065 14.5318 261.741 20.9903C265.571 27.2951 267.486 34.215 267.486 41.75C267.486 50.3614 265.111 57.8964 260.363 64.355C255.614 70.8135 249.257 75.1192 241.292 77.2721C250.483 79.2712 258.065 83.8075 264.039 90.8812C270.013 97.8011 273 106.797 273 117.869C273 126.788 270.932 135.015 266.796 142.55C262.66 149.931 256.533 155.851 248.415 160.311C240.296 164.77 230.34 167 218.545 167Z" fill="#F3F3F3"/>
</g>
</svg>
