<svg width="288" height="167" viewBox="0 0 288 167" fill="none" xmlns="http://www.w3.org/2000/svg">
<g opacity="0.03">
<path d="M70.3199 167C55.718 167 43.1142 163.54 32.5085 156.62C22.0566 149.546 13.9871 139.782 8.30005 127.326C2.76668 114.716 0 100.108 0 83.5C0 66.8923 2.76668 52.3605 8.30005 39.9047C13.9871 27.2951 22.0566 17.5304 32.5085 10.6105C43.1142 3.53683 55.718 0 70.3199 0C84.9219 0 97.4488 3.53683 107.901 10.6105C118.353 17.5304 126.345 27.2951 131.879 39.9047C137.566 52.3605 140.409 66.8923 140.409 83.5C140.409 100.108 137.566 114.716 131.879 127.326C126.345 139.782 118.353 149.546 107.901 156.62C97.4488 163.54 84.9219 167 70.3199 167ZM70.3199 145.087C79.0811 145.087 86.8432 142.627 93.6062 137.706C100.523 132.785 105.903 125.711 109.745 116.485C113.588 107.258 115.509 96.2633 115.509 83.5C115.509 70.7366 113.588 59.7417 109.745 50.5152C105.903 41.2887 100.523 34.215 93.6062 29.2942C86.8432 24.3734 79.0811 21.913 70.3199 21.913C61.405 21.913 53.5661 24.3734 46.8031 29.2942C40.0401 34.215 34.7373 41.2887 30.8946 50.5152C27.052 59.7417 25.1307 70.7366 25.1307 83.5C25.1307 96.2633 27.052 107.258 30.8946 116.485C34.7373 125.711 40.0401 132.785 46.8031 137.706C53.5661 142.627 61.405 145.087 70.3199 145.087Z" fill="#F3F3F3"/>
<path d="M241.197 164.232V131.939H160.271V112.564L237.277 2.76795H265.405V110.718H288V131.939H265.405V164.232H241.197ZM186.785 110.718H242.58V29.7555L186.785 110.718Z" fill="#F3F3F3"/>
</g>
</svg>
