<svg width="283" height="173" viewBox="0 0 283 173" fill="none" xmlns="http://www.w3.org/2000/svg">
<path opacity="0.03" d="M34.2003 160.857L34.2108 160.864L34.2215 160.871C44.9529 167.975 57.6243 171.5 72.1716 171.5C86.7185 171.5 99.3175 167.976 109.9 160.865L109.906 160.861L109.912 160.857C120.46 153.612 128.547 143.62 134.183 130.935L134.186 130.929C139.818 118.094 142.613 103.273 142.613 86.5C142.613 69.7286 139.819 54.9826 134.184 42.2987C128.55 29.4621 120.463 19.4646 109.906 12.3696C99.3237 5.10336 86.7222 1.5 72.1716 1.5C57.6184 1.5 44.9431 5.10453 34.2107 12.367C23.652 19.4621 15.5631 29.4605 9.92843 42.2988C4.29394 54.9827 1.5 69.7286 1.5 86.5C1.5 103.273 4.29459 118.094 9.92703 130.929L9.92979 130.935C15.5655 143.62 23.6523 153.612 34.2003 160.857ZM113.45 121.659L113.445 121.67C109.386 131.295 103.706 138.669 96.4338 143.867C89.3195 148.907 81.2485 151.431 72.1716 151.431C62.9381 151.431 54.7934 148.905 47.6848 143.871C40.561 138.672 34.876 131.292 30.6613 121.656C26.4578 111.892 24.3292 100.187 24.3292 86.5C24.3292 72.8099 26.4586 61.1848 30.6595 51.5789C34.875 41.9398 40.5588 34.6401 47.676 29.5968L47.6844 29.5908L47.6927 29.5848C54.8026 24.3984 62.9443 21.7997 72.1716 21.7997C81.2396 21.7997 89.3057 24.3952 96.42 29.5848L96.4342 29.5951L96.4487 29.6051C103.711 34.6461 109.387 41.9371 113.445 51.5607L113.449 51.5699L113.453 51.5789C117.654 61.1848 119.784 72.8099 119.784 86.5C119.784 100.189 117.654 111.895 113.45 121.659ZM174.307 148.464L174.317 148.479L174.328 148.495C179.402 155.632 186.134 161.249 194.489 165.349C202.881 169.468 212.724 171.5 223.971 171.5C236.029 171.5 246.386 168.835 254.971 163.43C263.655 158.058 270.226 150.854 274.656 141.837C279.222 132.854 281.5 123.088 281.5 112.565C281.5 101.588 279.225 91.7318 274.64 83.0326C270.061 74.3441 263.653 67.4546 255.429 62.3906C247.319 57.3011 237.812 54.7831 226.968 54.7831C218.34 54.7831 210.596 56.2745 203.766 59.2937L203.754 59.2992C198.993 61.4536 194.929 64.033 191.584 67.0496L199.847 24.1063H268.241H269.741V22.6063V5.76795V4.26795H268.241H183.621H182.337L182.139 5.53647L168.304 94.1111L168.034 95.8425H169.787H188.232H189.2L189.599 94.9606C192.393 88.783 196.801 83.7743 202.87 79.9241C208.889 76.1058 216.206 74.1602 224.893 74.1602C235.268 74.1602 243.616 77.6994 250.073 84.7454C256.534 91.7971 259.824 101.098 259.824 112.796C259.824 120.12 258.331 126.731 255.37 132.654L255.364 132.668L255.357 132.681C252.552 138.589 248.507 143.296 243.21 146.831C237.959 150.184 231.645 151.892 224.202 151.892C214.179 151.892 205.999 149.28 199.551 144.152C193.069 138.844 188.942 131.927 187.165 123.333L186.918 122.137H185.696H166.789H165.097L165.3 123.816C166.403 132.958 169.402 141.183 174.307 148.464Z" fill="#F3F3F3" stroke="#F3F3F3" stroke-width="3"/>
</svg>
