<svg width="127" height="127" viewBox="0 0 127 127" fill="none" xmlns="http://www.w3.org/2000/svg">
<path d="M109.692 71.9719C108.986 71.8926 108.362 71.7158 107.822 71.4414C107.282 71.1671 106.835 70.8161 106.482 70.3883C106.128 69.9606 105.877 69.4658 105.726 68.9038C105.575 68.3461 105.536 67.7443 105.608 67.0984L105.983 63.7589L115.123 64.7849L114.748 68.1244C114.676 68.7703 114.504 69.3484 114.233 69.8587C113.962 70.3733 113.606 70.8 113.167 71.1388C112.728 71.4776 112.214 71.7208 111.627 71.8685C111.039 72.0162 110.394 72.0507 109.692 71.9719ZM109.769 71.2872C110.406 71.3587 110.985 71.3342 111.504 71.2137C112.023 71.0933 112.473 70.8909 112.854 70.6066C113.235 70.3223 113.541 69.9642 113.773 69.5323C114.004 69.1005 114.151 68.6111 114.212 68.0642L114.512 65.39L106.444 64.4844L106.144 67.1586C106.083 67.7055 106.117 68.2151 106.247 68.6876C106.377 69.1601 106.597 69.5771 106.905 69.9388C107.213 70.3004 107.607 70.5975 108.087 70.8302C108.567 71.0628 109.127 71.2151 109.769 71.2872Z" fill="#E6F355"/>
<path d="M106.466 77.9163C106.633 77.3237 106.748 76.8029 106.81 76.3541C106.874 75.9107 106.889 75.5309 106.854 75.2148C106.817 74.9027 106.733 74.6529 106.602 74.4653C106.476 74.2791 106.303 74.1509 106.084 74.0808C105.878 74.0147 105.688 73.9902 105.514 74.0074C105.343 74.0299 105.19 74.081 105.055 74.1607C104.923 74.2459 104.811 74.3554 104.718 74.4895C104.625 74.6235 104.552 74.771 104.501 74.9319C104.424 75.1713 104.379 75.3979 104.365 75.6119C104.354 75.8312 104.367 76.0401 104.403 76.2384C104.442 76.4421 104.502 76.6387 104.583 76.8283C104.663 77.0178 104.754 77.2086 104.857 77.4007L106.466 77.9163ZM109.935 75.0348C110.154 75.4598 110.289 75.8762 110.34 76.284C110.392 76.6918 110.345 77.1206 110.201 77.5704C110.095 77.9005 109.949 78.1722 109.763 78.3854C109.58 78.6 109.364 78.756 109.114 78.8535C108.868 78.9564 108.591 79.0042 108.284 78.9968C107.981 78.9908 107.658 78.9329 107.315 78.8231L103.304 77.5381L103.38 77.3028C103.419 77.179 103.501 77.1212 103.626 77.1293L104.446 77.2965C104.335 77.0744 104.241 76.8576 104.163 76.6461C104.084 76.4388 104.028 76.2297 103.996 76.0191C103.963 75.8084 103.956 75.5899 103.973 75.3636C103.991 75.1373 104.041 74.8982 104.121 74.6465C104.189 74.436 104.285 74.2417 104.411 74.0634C104.536 73.8852 104.688 73.7381 104.866 73.6223C105.043 73.5106 105.245 73.439 105.474 73.4076C105.705 73.3816 105.961 73.4135 106.242 73.5034C106.502 73.5867 106.719 73.7383 106.895 73.9583C107.07 74.1782 107.189 74.4735 107.252 74.8442C107.316 75.2148 107.317 75.6636 107.258 76.1906C107.197 76.7216 107.063 77.3385 106.856 78.0412L107.5 78.2475C108.069 78.4299 108.546 78.4462 108.931 78.2965C109.319 78.1522 109.59 77.8386 109.744 77.3558C109.84 77.0586 109.88 76.7916 109.864 76.5547C109.848 76.3219 109.813 76.1175 109.761 75.9413C109.708 75.7651 109.655 75.6184 109.601 75.5012C109.548 75.384 109.531 75.2944 109.551 75.2325C109.565 75.1871 109.588 75.1533 109.618 75.131C109.647 75.1087 109.682 75.0926 109.722 75.0825L109.935 75.0348Z" fill="#E6F355"/>
<path d="M106.83 83.1338C107.02 83.5722 107.124 84.0164 107.141 84.4665C107.157 84.9204 107.052 85.3601 106.827 85.7855C106.662 86.0997 106.466 86.3493 106.241 86.5344C106.014 86.7232 105.765 86.8466 105.494 86.9047C105.224 86.9627 104.935 86.9621 104.628 86.9031C104.321 86.844 104.001 86.7265 103.667 86.5505L100.011 84.6209L100.303 84.0691L103.959 85.9986C104.495 86.2818 104.98 86.3806 105.412 86.2952C105.848 86.2117 106.198 85.9189 106.463 85.4169C106.66 85.0452 106.748 84.6459 106.728 84.219C106.71 83.798 106.599 83.372 106.396 82.9411L102.096 80.6717L102.387 80.1198L108.107 83.1386L107.946 83.4433C107.895 83.5391 107.818 83.5693 107.714 83.5341L106.83 83.1338Z" fill="#E6F355"/>
<path d="M100.448 95.1107L95.3892 91.0809L95.6038 90.8115C95.6713 90.7268 95.7545 90.7127 95.8535 90.7694L96.6424 91.323C96.5372 90.8569 96.5193 90.3995 96.5887 89.9506C96.6555 89.5052 96.8387 89.0944 97.1384 88.7181C97.3625 88.4368 97.6023 88.2262 97.8579 88.0863C98.1134 87.9463 98.3795 87.873 98.6563 87.8663C98.9331 87.8597 99.2168 87.9139 99.5073 88.029C99.7979 88.1441 100.091 88.3192 100.385 88.5541L103.619 91.1298L103.23 91.6179L99.9967 89.0421C99.5222 88.6641 99.0629 88.4756 98.619 88.4765C98.1784 88.4801 97.7813 88.704 97.4276 89.148C97.1657 89.4767 97.0044 89.8496 96.9437 90.2666C96.8837 90.6897 96.9137 91.1319 97.0337 91.5932L100.837 94.6226L100.448 95.1107Z" fill="#E6F355"/>
<path d="M93.8707 94.8113C93.4368 94.6937 93.0572 94.6753 92.7318 94.756C92.406 94.8429 92.1005 95.0096 91.8152 95.2561C91.5234 95.5083 91.3147 95.7804 91.189 96.0723C91.06 96.367 91.0069 96.6735 91.0298 96.9916C91.0523 97.3158 91.1479 97.6484 91.3166 97.9894C91.4853 98.3305 91.7199 98.6747 92.0202 99.0223C92.6039 99.6977 93.1775 100.09 93.7411 100.198C94.3046 100.307 94.829 100.152 95.3142 99.7322C95.6617 99.4318 95.8928 99.0861 96.0073 98.6951C96.1218 98.304 96.1534 97.8701 96.1021 97.3932L93.8707 94.8113ZM96.4421 97.7866C96.4783 98.2593 96.4247 98.7009 96.2811 99.1113C96.1404 99.5251 95.8815 99.8949 95.5044 100.221C95.2094 100.476 94.8987 100.65 94.5724 100.743C94.2461 100.836 93.9148 100.85 93.5785 100.786C93.2389 100.724 92.8975 100.581 92.5544 100.356C92.2142 100.135 91.8811 99.8355 91.5553 99.4585C91.2124 99.0618 90.9469 98.6584 90.7586 98.2484C90.5732 97.8416 90.4717 97.4425 90.4541 97.051C90.4361 96.6657 90.5029 96.2958 90.6547 95.9412C90.8093 95.5899 91.0555 95.2684 91.3932 94.9765C91.7407 94.6762 92.0941 94.4853 92.4533 94.404C92.8121 94.3287 93.1934 94.3457 93.5971 94.455L93.1087 93.8203C93.0477 93.7299 93.0566 93.6506 93.1353 93.5826L93.4205 93.3361L99.6046 100.492L99.1325 100.9L96.4421 97.7866Z" fill="#E6F355"/>
<path d="M85.3091 104.128C85.4865 104.426 85.6879 104.667 85.9132 104.85C86.1371 105.04 86.3741 105.171 86.6243 105.244C86.8745 105.317 87.1313 105.333 87.3945 105.292C87.6562 105.257 87.9136 105.164 88.1667 105.014C88.4534 104.843 88.6837 104.645 88.8575 104.421C89.0314 104.196 89.1522 103.95 89.2199 103.683C89.2839 103.418 89.2963 103.138 89.2571 102.843C89.2179 102.549 89.1286 102.247 88.9891 101.936L85.3091 104.128ZM88.8141 101.579L88.7509 101.473C88.5025 101.056 88.2357 100.718 87.9504 100.459C87.6651 100.2 87.3687 100.016 87.0614 99.9068C86.7563 99.8011 86.445 99.7696 86.1276 99.8125C85.8101 99.8553 85.495 99.9699 85.1823 100.156C84.9031 100.323 84.6788 100.496 84.5096 100.678C84.3425 100.863 84.2123 101.034 84.1189 101.191C84.024 101.353 83.9534 101.489 83.9069 101.597C83.8627 101.709 83.822 101.776 83.7848 101.798C83.7364 101.827 83.6881 101.831 83.6398 101.809L83.3882 101.717C83.411 101.552 83.468 101.377 83.5593 101.191C83.6468 101.008 83.7607 100.827 83.901 100.647C84.0398 100.474 84.2012 100.304 84.3853 100.139C84.5657 99.9763 84.7601 99.8327 84.9686 99.7085C85.3483 99.4823 85.7333 99.3412 86.1237 99.2852C86.5162 99.2329 86.8996 99.2668 87.2738 99.3869C87.6479 99.507 88.0051 99.7129 88.3453 100.005C88.684 100.302 88.9942 100.687 89.2758 101.16C89.5131 101.558 89.6757 101.958 89.7636 102.36C89.85 102.768 89.8592 103.155 89.7912 103.524C89.7216 103.898 89.5734 104.246 89.3464 104.568C89.1158 104.892 88.8031 105.172 88.4085 105.407C88.0958 105.593 87.7733 105.712 87.4409 105.764C87.1086 105.816 86.7816 105.796 86.4601 105.705C86.1408 105.618 85.8355 105.457 85.5442 105.222C85.2492 104.989 84.9852 104.677 84.7523 104.286C84.7036 104.204 84.6815 104.142 84.6861 104.099C84.6906 104.056 84.719 104.018 84.7711 103.987L88.8141 101.579Z" fill="#E6F355"/>
<path d="M75.3109 105.812C75.2702 105.827 75.2304 105.825 75.1915 105.807L74.8511 105.634C74.96 105.377 75.0919 105.133 75.2468 104.901C75.3991 104.674 75.5812 104.459 75.7932 104.257C76.0026 104.06 76.2473 103.878 76.5275 103.711C76.8021 103.541 77.1185 103.39 77.4765 103.259C78.0746 103.04 78.6618 102.942 79.2383 102.966C79.8123 102.996 80.3484 103.136 80.8466 103.387C81.3464 103.642 81.7959 104.006 82.1951 104.478C82.5903 104.952 82.9102 105.522 83.1549 106.189C83.3951 106.844 83.5127 107.48 83.5076 108.095C83.5026 108.711 83.3879 109.279 83.1635 109.8C82.9405 110.325 82.6115 110.787 82.1765 111.187C81.7429 111.59 81.2169 111.905 80.5985 112.132C80.0086 112.348 79.4523 112.449 78.9295 112.433C78.4067 112.417 77.897 112.31 77.4003 112.114L77.4888 111.77C77.5035 111.709 77.5454 111.666 77.6145 111.641C77.6633 111.623 77.7591 111.639 77.9018 111.688C78.0444 111.737 78.2328 111.779 78.4669 111.813C78.7024 111.851 78.9831 111.861 79.3088 111.844C79.6305 111.827 79.9948 111.744 80.4016 111.595C80.9224 111.404 81.3676 111.139 81.7373 110.801C82.1029 110.464 82.3812 110.071 82.5721 109.622C82.759 109.175 82.8519 108.68 82.8508 108.135C82.8497 107.591 82.7395 107.02 82.5202 106.422C82.2964 105.812 82.0091 105.299 81.6581 104.883C81.303 104.468 80.9097 104.151 80.4782 103.931C80.0482 103.715 79.5908 103.594 79.1061 103.568C78.6189 103.549 78.1311 103.628 77.6429 103.807C77.3337 103.921 77.0665 104.042 76.8414 104.17C76.6122 104.301 76.4108 104.444 76.2373 104.6C76.0637 104.756 75.911 104.925 75.7794 105.107C75.6477 105.289 75.5255 105.491 75.4128 105.712C75.3984 105.736 75.3826 105.755 75.3652 105.771C75.3493 105.791 75.3312 105.804 75.3109 105.812Z" fill="#E6F355"/>
<path d="M71.2084 111.786C70.7502 111.857 70.329 111.841 69.9447 111.738C69.5568 111.641 69.2164 111.468 68.9235 111.219C68.6306 110.971 68.3883 110.654 68.1967 110.267C68.0015 109.885 67.865 109.443 67.7872 108.942C67.7094 108.441 67.7056 107.979 67.7759 107.556C67.8419 107.134 67.9768 106.76 68.1806 106.434C68.3844 106.109 68.6563 105.841 68.9964 105.63C69.3321 105.42 69.7291 105.28 70.1873 105.208C70.6454 105.137 71.0685 105.151 71.4564 105.248C71.84 105.347 72.1804 105.52 72.4776 105.767C72.7705 106.016 73.0146 106.331 73.2098 106.713C73.4007 107.095 73.5351 107.537 73.6129 108.038C73.6907 108.539 73.6966 109.001 73.6306 109.423C73.561 109.851 73.4243 110.227 73.2205 110.552C73.0124 110.879 72.7405 111.147 72.4047 111.357C72.0653 111.571 71.6666 111.715 71.2084 111.786ZM70.2621 105.69C69.881 105.749 69.5591 105.865 69.2964 106.037C69.0301 106.215 68.8217 106.44 68.6712 106.713C68.5164 106.987 68.4185 107.303 68.3775 107.66C68.3371 108.022 68.3502 108.416 68.4166 108.845C68.4825 109.269 68.5894 109.647 68.7374 109.979C68.8855 110.311 69.0748 110.584 69.3054 110.798C69.5324 111.018 69.7996 111.171 70.1071 111.259C70.4103 111.348 70.7525 111.363 71.1336 111.304C71.5147 111.245 71.8384 111.127 72.1047 110.949C72.3667 110.773 72.5748 110.545 72.7289 110.267C72.8794 109.994 72.977 109.676 73.0216 109.314C73.062 108.952 73.0492 108.56 72.9834 108.136C72.917 107.707 72.8097 107.327 72.6616 106.995C72.51 106.668 72.321 106.397 72.0947 106.182C71.8641 105.968 71.5972 105.816 71.294 105.727C70.9871 105.643 70.6432 105.631 70.2621 105.69Z" fill="#E6F355"/>
<path d="M63.8645 111.301C63.5527 111.663 63.198 111.95 62.8004 112.162C62.3985 112.373 61.9572 112.47 61.4765 112.454C61.1214 112.441 60.8115 112.374 60.5469 112.252C60.278 112.13 60.0584 111.96 59.8883 111.742C59.7181 111.523 59.5927 111.263 59.5121 110.961C59.4316 110.659 59.3978 110.32 59.4109 109.943L59.5545 105.811L60.1781 105.833L60.0346 109.965C60.0135 110.571 60.1356 111.05 60.4009 111.402C60.666 111.758 61.0822 111.946 61.6495 111.965C62.0696 111.98 62.4675 111.885 62.8431 111.682C63.2143 111.482 63.5494 111.197 63.8485 110.826L64.0173 105.967L64.6409 105.988L64.4163 112.452L64.072 112.44C63.9638 112.436 63.9028 112.38 63.8893 112.271L63.8645 111.301Z" fill="#E6F355"/>
<path d="M54.9244 110.649C54.5515 110.947 54.1503 111.164 53.7207 111.3C53.2868 111.434 52.8351 111.449 52.3656 111.344C52.0187 111.267 51.7264 111.144 51.4887 110.976C51.2467 110.807 51.062 110.599 50.9347 110.353C50.8074 110.107 50.7319 109.829 50.708 109.517C50.6841 109.205 50.7131 108.866 50.7951 108.498L51.6932 104.462L52.3023 104.598L51.4042 108.633C51.2723 109.225 51.3046 109.719 51.5009 110.113C51.6963 110.512 52.0711 110.773 52.6252 110.896C53.0355 110.987 53.4439 110.967 53.8505 110.836C54.252 110.708 54.6337 110.489 54.9957 110.178L56.0521 105.433L56.6611 105.568L55.256 111.881L54.9197 111.806C54.814 111.783 54.7644 111.716 54.771 111.607L54.9244 110.649Z" fill="#E6F355"/>
<path d="M43.1935 105.476C43.0596 105.796 42.986 106.101 42.9725 106.391C42.9534 106.684 42.9889 106.952 43.0792 107.197C43.1695 107.441 43.3093 107.657 43.4987 107.844C43.6824 108.034 43.9101 108.186 44.1819 108.299C44.4897 108.428 44.7856 108.496 45.0696 108.502C45.3536 108.508 45.6232 108.459 45.8783 108.354C46.1295 108.248 46.3618 108.091 46.5751 107.885C46.7884 107.678 46.9783 107.426 47.1448 107.13L43.1935 105.476ZM47.3279 106.777L47.3756 106.663C47.563 106.215 47.6758 105.799 47.7141 105.416C47.7524 105.033 47.7241 104.685 47.6293 104.373C47.5328 104.065 47.3729 103.796 47.1496 103.566C46.9263 103.337 46.6468 103.151 46.311 103.011C46.0112 102.885 45.738 102.809 45.4914 102.781C45.2431 102.756 45.0282 102.753 44.8469 102.772C44.6598 102.792 44.509 102.816 44.3943 102.843C44.2779 102.874 44.1997 102.881 44.1597 102.864C44.1078 102.843 44.0762 102.806 44.0649 102.754L43.9893 102.497C44.1354 102.417 44.3102 102.359 44.5136 102.322C44.713 102.283 44.9265 102.267 45.1542 102.273C45.3762 102.281 45.6083 102.31 45.8505 102.36C46.0888 102.408 46.3199 102.479 46.5437 102.573C46.9514 102.743 47.2939 102.969 47.5711 103.249C47.8466 103.534 48.0474 103.862 48.1735 104.234C48.2996 104.607 48.3466 105.016 48.3145 105.463C48.2768 105.912 48.1517 106.391 47.9392 106.899C47.7602 107.326 47.5354 107.695 47.2649 108.004C46.9887 108.316 46.6824 108.554 46.3458 108.719C46.0035 108.886 45.6355 108.974 45.2418 108.983C44.8441 108.99 44.4334 108.905 44.0097 108.728C43.674 108.587 43.3864 108.399 43.1471 108.162C42.9079 107.926 42.7291 107.651 42.611 107.339C42.4911 107.03 42.439 106.689 42.4546 106.315C42.4662 105.939 42.5599 105.542 42.7356 105.122C42.7724 105.034 42.8095 104.979 42.8468 104.957C42.8842 104.935 42.9309 104.936 42.9868 104.959L47.3279 106.777Z" fill="#E6F355"/>
<path d="M35.8369 103.273C35.8667 103.266 35.8954 103.261 35.923 103.257C35.9446 103.256 35.9701 103.264 35.9995 103.282C36.0362 103.305 36.0708 103.36 36.1034 103.447C36.1336 103.538 36.1836 103.646 36.2534 103.771C36.3231 103.896 36.4238 104.034 36.5555 104.183C36.6813 104.333 36.858 104.479 37.0857 104.622C37.4016 104.82 37.7182 104.938 38.0356 104.979C38.347 105.02 38.6527 104.989 38.9527 104.886C39.2528 104.782 39.54 104.609 39.8144 104.367C40.0851 104.122 40.3366 103.814 40.5688 103.443C40.8102 103.058 40.98 102.688 41.0781 102.336C41.1725 101.981 41.2014 101.649 41.1649 101.34C41.1261 101.034 41.0225 100.755 40.8541 100.501C40.6857 100.247 40.4583 100.031 40.1718 99.8513C39.9073 99.6858 39.6674 99.579 39.452 99.5311C39.2329 99.4809 39.0435 99.4568 38.8836 99.459C38.7201 99.4589 38.5857 99.4694 38.4805 99.4904C38.3753 99.5115 38.3007 99.5082 38.2566 99.4806C38.2125 99.453 38.1873 99.4117 38.1809 99.3566L38.1535 99.094C38.307 99.0367 38.4779 99.0006 38.6662 98.9855C38.8546 98.9705 39.0514 98.9787 39.2567 99.0101C39.462 99.0415 39.6716 99.0986 39.8856 99.1814C40.0982 99.2583 40.3074 99.3611 40.5131 99.4898C40.862 99.7083 41.1425 99.9707 41.3545 100.277C41.5605 100.585 41.6934 100.924 41.7533 101.294C41.8073 101.665 41.7838 102.062 41.6829 102.484C41.5783 102.905 41.3869 103.337 41.1087 103.781C40.8466 104.2 40.5524 104.548 40.2261 104.824C39.8997 105.1 39.5519 105.296 39.1825 105.413C38.8131 105.529 38.4334 105.56 38.0435 105.505C37.6476 105.452 37.2513 105.301 36.8546 105.052C36.4983 104.829 36.2181 104.575 36.0139 104.288C35.8097 104.002 35.6657 103.697 35.5819 103.374L35.8369 103.273Z" fill="#E6F355"/>
<path d="M35.3164 95.6982C35.6517 95.9795 35.836 96.2925 35.8692 96.6372C35.8991 96.979 35.7511 97.3442 35.4252 97.7325L32.584 101.118L33.296 101.716C33.3325 101.747 33.354 101.782 33.3606 101.821C33.3671 101.86 33.355 101.898 33.3244 101.935L33.1698 102.119L32.2732 101.469L30.6662 103.141C30.6345 103.165 30.599 103.181 30.5596 103.187C30.5201 103.194 30.4822 103.182 30.4457 103.151L30.2216 102.963L31.8093 101.071L30.2459 99.7589L30.5425 99.4053L32.106 100.717L34.9263 97.3563C35.0405 97.2202 35.1228 97.0885 35.1731 96.961C35.2174 96.8341 35.2361 96.7141 35.2293 96.6009C35.2192 96.4849 35.1851 96.3771 35.1272 96.2776C35.0693 96.1781 34.9922 96.0879 34.8959 96.0072C34.7764 95.9069 34.6596 95.8371 34.5454 95.7979C34.4285 95.762 34.3218 95.7375 34.2253 95.7244C34.126 95.7146 34.0425 95.7096 33.9748 95.7094C33.9044 95.7125 33.8575 95.7043 33.8343 95.6848C33.8077 95.6625 33.7951 95.6236 33.7964 95.5681L33.8424 95.2504C34.0855 95.2168 34.3412 95.239 34.6095 95.3171C34.8717 95.3957 35.1073 95.5227 35.3164 95.6982Z" fill="#E6F355"/>
<path d="M27.6944 97.5776L32.3007 93.0377L32.7341 93.4775L28.1278 98.0174L27.6944 97.5776ZM25.9194 98.9528C25.9749 98.898 26.0396 98.8586 26.1133 98.8347C26.1809 98.8106 26.2514 98.7989 26.325 98.7994C26.3985 98.8 26.4704 98.8143 26.5407 98.8424C26.611 98.8704 26.6735 98.9123 26.7282 98.9678C26.783 99.0234 26.8239 99.0865 26.851 99.1572C26.878 99.2278 26.8913 99.2999 26.8907 99.3735C26.8902 99.447 26.8774 99.5174 26.8524 99.5846C26.8244 99.6549 26.7825 99.7174 26.727 99.7722C26.6714 99.8269 26.6083 99.8678 26.5376 99.8949C26.4639 99.925 26.3902 99.9398 26.3167 99.9393C26.2432 99.9387 26.1713 99.9244 26.101 99.8963C26.0307 99.8682 25.9682 99.8264 25.9134 99.7709C25.8587 99.7153 25.8178 99.6522 25.7907 99.5815C25.7637 99.5108 25.7504 99.4387 25.7509 99.3652C25.7515 99.2917 25.7673 99.2182 25.7985 99.1449C25.8235 99.0716 25.8638 99.0075 25.9194 98.9528Z" fill="#E6F355"/>
<path d="M24.0285 93.5724C23.7476 93.2035 23.5606 92.8257 23.4677 92.439C23.3687 92.0514 23.3585 91.6697 23.4372 91.2938C23.516 90.918 23.6797 90.5537 23.9285 90.2008C24.1712 89.8472 24.4942 89.5168 24.8976 89.2096C25.301 88.9025 25.7054 88.679 26.1108 88.5391C26.5137 88.3957 26.9067 88.3361 27.29 88.3602C27.6732 88.3843 28.0385 88.4956 28.3857 88.6941C28.7303 88.8892 29.0431 89.1712 29.324 89.5401C29.6049 89.909 29.7949 90.2872 29.8939 90.6748C29.9903 91.0589 30.0005 91.4406 29.9243 91.8199C29.8456 92.1957 29.6849 92.5605 29.4422 92.9141C29.1969 93.2643 28.8725 93.593 28.4692 93.9001C28.0658 94.2073 27.6627 94.4325 27.2599 94.5759C26.851 94.7184 26.4549 94.7776 26.0716 94.7535C25.6858 94.726 25.3205 94.6147 24.9759 94.4196C24.6252 94.2237 24.3094 93.9413 24.0285 93.5724ZM28.9362 89.8354C28.7025 89.5286 28.4473 89.3008 28.1707 89.152C27.8879 89.0024 27.5905 88.9265 27.2785 88.9245C26.9638 88.919 26.6397 88.9833 26.3061 89.1175C25.9691 89.2543 25.6283 89.4539 25.2835 89.7164C24.9422 89.9763 24.6608 90.2505 24.4393 90.539C24.2178 90.8275 24.0678 91.1241 23.9894 91.4289C23.905 91.7329 23.8973 92.041 23.9663 92.3534C24.0327 92.6623 24.1827 92.9702 24.4163 93.2771C24.65 93.5839 24.9082 93.8121 25.1909 93.9617C25.4711 94.1079 25.7702 94.1824 26.0883 94.1853C26.4003 94.1874 26.7261 94.1217 27.0658 93.9884C27.4028 93.8516 27.742 93.6532 28.0833 93.3933C28.428 93.1308 28.7112 92.8553 28.9327 92.5668C29.1481 92.2775 29.2963 91.9822 29.3773 91.6809C29.4557 91.3761 29.4617 91.0692 29.3953 90.7603C29.3228 90.4505 29.1698 90.1423 28.9362 89.8354Z" fill="#E6F355"/>
<path d="M21.066 87.1177C20.5986 87.0185 20.1765 86.8456 19.7997 86.5988C19.4209 86.3482 19.1233 86.0082 18.9067 85.5787C18.7467 85.2614 18.6565 84.9575 18.6361 84.6669C18.6137 84.3724 18.6574 84.098 18.7669 83.8437C18.8765 83.5895 19.0443 83.3544 19.2703 83.1385C19.4963 82.9226 19.7776 82.7298 20.1142 82.56L23.8054 80.6985L24.0864 81.2556L20.3952 83.1172C19.8535 83.3904 19.4923 83.7279 19.3115 84.1296C19.1269 84.5334 19.1624 84.9887 19.418 85.4955C19.6073 85.8708 19.8816 86.1741 20.2409 86.4054C20.5944 86.6348 21.0058 86.7914 21.475 86.875L25.8162 84.6856L26.0972 85.2428L20.3225 88.1551L20.1674 87.8475C20.1186 87.7508 20.1387 87.6703 20.2276 87.606L21.066 87.1177Z" fill="#E6F355"/>
<path d="M16.1776 76.229C16.2458 76.244 16.2896 76.2825 16.309 76.3446C16.3232 76.3901 16.3164 76.4558 16.2888 76.5416C16.2569 76.6287 16.2287 76.7419 16.2041 76.8812C16.174 77.0177 16.1613 77.1805 16.1659 77.3698C16.1663 77.5603 16.2053 77.7796 16.2827 78.0278C16.3524 78.2512 16.4494 78.4456 16.5737 78.6111C16.6926 78.7738 16.8264 78.9045 16.9753 79.0033C17.1228 79.098 17.28 79.1579 17.4467 79.183C17.6093 79.2095 17.7692 79.1982 17.9264 79.1491C18.1208 79.0884 18.2666 78.9884 18.3639 78.8492C18.4612 78.7099 18.5308 78.5474 18.5727 78.3618C18.6134 78.1721 18.6345 77.9635 18.6362 77.736C18.6378 77.5085 18.6388 77.279 18.6391 77.0473C18.6382 76.8116 18.6468 76.5774 18.665 76.3447C18.6791 76.1134 18.7215 75.9004 18.7924 75.7058C18.8621 75.507 18.9682 75.3309 19.111 75.1774C19.2538 75.0239 19.4492 74.9084 19.6974 74.831C19.9663 74.747 20.2314 74.7165 20.4928 74.7394C20.7541 74.7622 20.9986 74.8403 21.2263 74.9735C21.4527 75.1026 21.6575 75.286 21.8407 75.5239C22.0239 75.7618 22.1697 76.0545 22.2781 76.402C22.4137 76.8363 22.4622 77.232 22.4238 77.589C22.3813 77.9473 22.2871 78.2853 22.1411 78.6032L21.8876 78.5326C21.848 78.5222 21.8161 78.5072 21.7918 78.4876C21.7662 78.4638 21.7463 78.4291 21.7321 78.3836C21.7154 78.3298 21.7284 78.2554 21.7714 78.1603C21.8131 78.061 21.8532 77.935 21.8918 77.7823C21.9262 77.6308 21.9475 77.4517 21.9556 77.2449C21.9624 77.0339 21.9225 76.7899 21.836 76.5127C21.7547 76.2521 21.6479 76.0335 21.5156 75.8569C21.3792 75.6816 21.2283 75.5471 21.0629 75.4535C20.8975 75.3598 20.7217 75.3057 20.5356 75.2912C20.344 75.2738 20.1552 75.2941 19.969 75.3522C19.7622 75.4168 19.606 75.52 19.5005 75.6618C19.395 75.8037 19.3198 75.9702 19.275 76.1612C19.2302 76.3522 19.207 76.5615 19.2054 76.7889C19.2024 77.0123 19.2014 77.2418 19.2024 77.4776C19.2033 77.7134 19.1968 77.9469 19.1827 78.1783C19.1674 78.4055 19.1249 78.6185 19.0553 78.8172C18.9857 79.016 18.8816 79.1915 18.7429 79.3437C18.6002 79.4972 18.4006 79.614 18.1441 79.694C17.9249 79.7624 17.699 79.7807 17.4667 79.7488C17.2343 79.7169 17.0145 79.638 16.8072 79.512C16.5986 79.3819 16.4095 79.2049 16.2397 78.9809C16.07 78.757 15.936 78.4878 15.8379 78.1735C15.7205 77.797 15.6703 77.4473 15.6875 77.1241C15.7034 76.7969 15.7856 76.4784 15.9341 76.1688L16.1776 76.229Z" fill="#E6F355"/>
<path d="M16.5216 68.6789C16.431 68.6873 16.3431 68.6781 16.2579 68.6512C16.1727 68.6243 16.0973 68.5856 16.0317 68.5351C15.9657 68.4803 15.9118 68.4156 15.8701 68.3412C15.8284 68.2667 15.8035 68.1863 15.7955 68.1C15.7871 68.0094 15.7963 67.9215 15.8233 67.8364C15.8502 67.7512 15.891 67.6756 15.9458 67.6096C16.0006 67.5435 16.0674 67.4895 16.1462 67.4473C16.225 67.4052 16.3097 67.38 16.4003 67.3715C16.4866 67.3635 16.5723 67.373 16.6575 67.3999C16.7384 67.4272 16.8118 67.4683 16.8778 67.5231C16.9395 67.5783 16.9914 67.6452 17.0336 67.724C17.0757 67.8028 17.1009 67.8875 17.1094 67.9781C17.1174 68.0644 17.1077 68.148 17.0804 68.2289C17.0531 68.3097 17.0142 68.383 16.9637 68.4486C16.9085 68.5103 16.8437 68.562 16.7692 68.6037C16.6904 68.6458 16.6079 68.6709 16.5216 68.6789Z" fill="#E6F355"/>
<path d="M16.688 51.6209C17.3889 51.738 18.0019 51.948 18.5268 52.2509C19.0517 52.5539 19.479 52.9284 19.8087 53.3745C20.1384 53.8206 20.3633 54.3282 20.4835 54.8975C20.6044 55.4625 20.6113 56.0655 20.5042 56.7066L19.9505 60.0212L10.8787 58.5058L11.4324 55.1912C11.5395 54.5501 11.742 53.9821 12.04 53.4871C12.3386 52.9878 12.7164 52.5808 13.1731 52.2661C13.6299 51.9514 14.1557 51.7361 14.7506 51.6201C15.3455 51.5042 15.9913 51.5045 16.688 51.6209ZM16.5744 52.3004C15.9419 52.1948 15.3631 52.1882 14.838 52.2806C14.3129 52.373 13.8526 52.5509 13.4572 52.8144C13.0617 53.0778 12.7367 53.4189 12.4822 53.8377C12.2278 54.2565 12.0552 54.7373 11.9645 55.2801L11.5211 57.9344L19.5287 59.272L19.9721 56.6177C20.0627 56.0749 20.0558 55.5641 19.9512 55.0854C19.8467 54.6066 19.6502 54.1784 19.3618 53.8007C19.0735 53.423 18.696 53.1052 18.2295 52.8471C17.763 52.589 17.2113 52.4068 16.5744 52.3004Z" fill="#E6F355"/>
<path d="M20.1748 45.9931C19.9767 46.5761 19.835 47.0901 19.7495 47.5351C19.6616 47.9744 19.6269 48.3529 19.6454 48.6705C19.6655 48.984 19.736 49.2379 19.8569 49.4321C19.9738 49.6248 20.1397 49.7619 20.3544 49.8433C20.5569 49.9202 20.7455 49.9547 20.92 49.9468C21.092 49.9332 21.2473 49.8902 21.3861 49.8177C21.5223 49.7397 21.6404 49.6362 21.7403 49.5072C21.8402 49.3783 21.9202 49.2348 21.9801 49.0768C22.0693 48.8418 22.1265 48.6179 22.1517 48.405C22.1743 48.1865 22.1726 47.9772 22.1465 47.7773C22.1179 47.5718 22.0685 47.3723 21.9983 47.1788C21.928 46.9852 21.8469 46.7899 21.7549 46.5928L20.1748 45.9931ZM16.5589 48.688C16.3628 48.252 16.2498 47.8291 16.22 47.4192C16.1902 47.0093 16.2591 46.5835 16.4267 46.1419C16.5497 45.8178 16.71 45.5542 16.9075 45.3511C17.1011 45.1464 17.3251 45.002 17.5795 44.9178C17.8314 44.828 18.1105 44.7949 18.4167 44.8184C18.7189 44.8404 19.0382 44.9152 19.3744 45.0428L23.3124 46.5373L23.2247 46.7682C23.1786 46.8898 23.0935 46.9432 22.9692 46.9285L22.1591 46.7184C22.2581 46.946 22.3409 47.1674 22.4075 47.3827C22.4757 47.594 22.5205 47.8057 22.542 48.0178C22.5634 48.2298 22.5593 48.4484 22.5295 48.6735C22.4997 48.8986 22.4379 49.1347 22.3441 49.3818C22.2657 49.5884 22.1592 49.7774 22.0246 49.9488C21.89 50.1202 21.7307 50.2591 21.5467 50.3654C21.3642 50.4676 21.1581 50.5284 20.9283 50.5478C20.6959 50.5616 20.442 50.5162 20.1665 50.4117C19.9113 50.3148 19.7019 50.1519 19.5385 49.923C19.3751 49.6942 19.2715 49.393 19.2279 49.0195C19.1842 48.6461 19.206 48.1978 19.2933 47.6748C19.3821 47.1476 19.5483 46.5387 19.792 45.8478L19.1599 45.608C18.6009 45.3958 18.1253 45.3544 17.7332 45.4837C17.3387 45.6074 17.0514 45.9062 16.8715 46.3802C16.7608 46.6719 16.7068 46.9365 16.7094 47.1739C16.7135 47.4072 16.7373 47.6132 16.7808 47.7919C16.8242 47.9706 16.8695 48.1199 16.9167 48.2398C16.9639 48.3596 16.976 48.45 16.9529 48.5107C16.936 48.5553 16.912 48.5879 16.881 48.6086C16.85 48.6293 16.8144 48.6436 16.7743 48.6515L16.5589 48.688Z" fill="#E6F355"/>
<path d="M20.1461 40.6069C19.9806 40.1586 19.9017 39.7094 19.9093 39.259C19.9192 38.8049 20.048 38.3717 20.2957 37.9594C20.4787 37.6548 20.6876 37.4164 20.9226 37.2441C21.1597 37.0681 21.4151 36.9586 21.6886 36.9156C21.9621 36.8727 22.2504 36.8892 22.5536 36.9651C22.8568 37.0411 23.1699 37.1762 23.4931 37.3703L27.0369 39.4991L26.7155 40.034L23.1718 37.9052C22.6517 37.5928 22.1736 37.4673 21.7373 37.5288C21.2973 37.588 20.9312 37.8609 20.6389 38.3475C20.4224 38.7079 20.3122 39.1017 20.3083 39.529C20.3028 39.9504 20.3899 40.3818 20.5696 40.8233L24.7374 43.327L24.4161 43.8619L18.872 40.5315L19.0494 40.2362C19.1051 40.1433 19.1839 40.1173 19.2857 40.1583L20.1461 40.6069Z" fill="#E6F355"/>
<path d="M26.9783 29.1941L31.8251 33.4762L31.597 33.7344C31.5253 33.8156 31.4415 33.8254 31.3456 33.7638L30.5859 33.1707C30.6672 33.6415 30.6618 34.0993 30.5696 34.544C30.4802 34.9854 30.2763 35.3864 29.9578 35.7469C29.7197 36.0164 29.4695 36.2146 29.2071 36.3413C28.9448 36.4681 28.6753 36.5277 28.3985 36.5203C28.1218 36.5128 27.8412 36.4442 27.5569 36.3145C27.2726 36.1847 26.9891 35.995 26.7066 35.7454L23.6085 33.0083L24.0217 32.5406L27.1198 35.2777C27.5744 35.6794 28.0234 35.8911 28.4669 35.9128C28.907 35.9316 29.315 35.7283 29.6909 35.3029C29.9692 34.9879 30.1493 34.6237 30.2312 34.2103C30.3127 33.7908 30.3052 33.3477 30.2088 32.8809L26.5651 29.6617L26.9783 29.1941Z" fill="#E6F355"/>
<path d="M33.514 29.8041C33.9413 29.9437 34.3195 29.9814 34.6486 29.9173C34.9784 29.8472 35.2921 29.6963 35.5895 29.4646C35.8938 29.2276 36.1161 28.9666 36.2565 28.6814C36.4004 28.3936 36.469 28.0903 36.4623 27.7714C36.4564 27.4465 36.3778 27.1094 36.2267 26.7602C36.0756 26.4111 35.8589 26.0553 35.5766 25.6929C35.0281 24.9887 34.4752 24.5679 33.918 24.4307C33.3607 24.2935 32.8291 24.422 32.3231 24.8161C31.9607 25.0983 31.7124 25.4318 31.5781 25.8165C31.4439 26.2012 31.3902 26.633 31.4171 27.1119L33.514 29.8041ZM31.0976 26.7016C31.0855 26.2277 31.1616 25.7894 31.3259 25.3868C31.4875 24.9808 31.7649 24.6247 32.158 24.3185C32.4657 24.0788 32.7848 23.9209 33.1154 23.8447C33.446 23.7684 33.7776 23.771 34.1103 23.8525C34.4463 23.9314 34.7799 24.0917 35.1111 24.3336C35.4396 24.572 35.757 24.8878 36.0632 25.281C36.3854 25.6946 36.6301 26.111 36.7972 26.5301C36.9617 26.9458 37.0427 27.3495 37.0403 27.7414C37.0387 28.1271 36.9531 28.4932 36.7834 28.8395C36.6111 29.1825 36.3489 29.4911 35.9967 29.7653C35.6344 30.0476 35.2717 30.2202 34.9088 30.2831C34.5467 30.34 34.1668 30.3036 33.7691 30.1739L34.2245 30.8326C34.2808 30.9261 34.268 31.0047 34.1859 31.0687L33.8885 31.3003L28.077 23.839L28.5693 23.4556L31.0976 26.7016Z" fill="#E6F355"/>
<path d="M42.645 20.8507C42.4832 20.5441 42.2945 20.2934 42.0789 20.0984C41.8652 19.8977 41.6352 19.7544 41.3891 19.6687C41.143 19.583 40.8875 19.5538 40.6225 19.5809C40.3593 19.6022 40.0975 19.6816 39.8369 19.8192C39.5418 19.9749 39.3016 20.1604 39.1164 20.3758C38.9312 20.5912 38.7978 20.8306 38.7164 21.094C38.6388 21.3555 38.6119 21.6342 38.6359 21.9303C38.6599 22.2263 38.7335 22.5329 38.8567 22.85L42.645 20.8507ZM39.0131 23.2159L39.0707 23.3251C39.2972 23.7543 39.5463 24.1055 39.8178 24.3787C40.0894 24.6518 40.3758 24.851 40.6771 24.9762C40.9763 25.0976 41.2856 25.145 41.6048 25.1186C41.9241 25.0922 42.2447 24.9941 42.5666 24.8242C42.854 24.6725 43.0869 24.5104 43.2654 24.3378C43.4417 24.1614 43.5806 23.9975 43.682 23.846C43.7851 23.6886 43.8627 23.5571 43.9146 23.4513C43.9645 23.3416 44.0087 23.2767 44.047 23.2564C44.0968 23.2302 44.1452 23.2291 44.1923 23.2533L44.4388 23.3583C44.4076 23.5218 44.3415 23.6939 44.2408 23.8744C44.144 24.0529 44.0209 24.2282 43.8715 24.4001C43.724 24.5661 43.554 24.7269 43.3616 24.8823C43.1731 25.0357 42.9715 25.169 42.7569 25.2823C42.366 25.4886 41.9742 25.6097 41.5815 25.6454C41.1868 25.6774 40.8057 25.6237 40.4382 25.4845C40.0707 25.3452 39.7246 25.1212 39.4 24.8124C39.0771 24.4977 38.7872 24.097 38.5303 23.6103C38.3139 23.2002 38.1722 22.7924 38.1051 22.3868C38.0399 21.9754 38.0507 21.5875 38.1377 21.2231C38.2265 20.8528 38.3925 20.5129 38.6357 20.2032C38.8828 19.8915 39.2095 19.6284 39.6157 19.414C39.9376 19.2441 40.2659 19.1419 40.6005 19.1075C40.935 19.073 41.2605 19.1094 41.5769 19.2168C41.8913 19.3204 42.1878 19.4971 42.4666 19.7468C42.7493 19.9945 42.9968 20.3196 43.2092 20.722C43.2537 20.8063 43.2725 20.8699 43.2657 20.9127C43.2589 20.9554 43.2286 20.991 43.175 21.0193L39.0131 23.2159Z" fill="#E6F355"/>
<path d="M52.6877 19.6926C52.7291 19.6799 52.7688 19.6835 52.8067 19.7036L53.1374 19.8942C53.0152 20.145 52.8706 20.3822 52.7037 20.6059C52.5396 20.8242 52.3465 21.0287 52.1241 21.2196C51.9047 21.4051 51.6506 21.574 51.362 21.7263C51.0788 21.8816 50.755 22.0153 50.3905 22.1275C49.7817 22.315 49.1901 22.3815 48.6157 22.3272C48.0441 22.2674 47.5162 22.099 47.0319 21.8219C46.5463 21.5407 46.1166 21.1538 45.7427 20.6614C45.3731 20.1676 45.0837 19.5812 44.8745 18.902C44.6692 18.2352 44.5853 17.5945 44.6227 16.98C44.6602 16.3654 44.8047 15.804 45.0563 15.2958C45.3066 14.7834 45.6595 14.3392 46.115 13.9632C46.5693 13.583 47.1111 13.296 47.7406 13.1022C48.3411 12.9173 48.902 12.8466 49.4232 12.8901C49.9444 12.9336 50.4479 13.0665 50.9334 13.2888L50.8269 13.6277C50.8091 13.6876 50.765 13.7284 50.6946 13.75C50.6449 13.7653 50.5501 13.7446 50.4102 13.688C50.2704 13.6313 50.0844 13.5797 49.8525 13.5333C49.6193 13.4826 49.3396 13.4577 49.0133 13.4584C48.6912 13.4578 48.3231 13.5213 47.909 13.6488C47.3788 13.8121 46.9203 14.053 46.5333 14.3717C46.1504 14.6891 45.8518 15.0667 45.6375 15.5045C45.4273 15.941 45.3084 16.431 45.2808 16.9746C45.2532 17.5181 45.3331 18.0942 45.5206 18.703C45.7119 19.3242 45.9718 19.8518 46.3004 20.2856C46.6331 20.7182 47.0091 21.0558 47.4284 21.2985C47.8464 21.5371 48.2968 21.6818 48.7795 21.7326C49.265 21.7781 49.7563 21.7243 50.2533 21.5713C50.568 21.4743 50.8412 21.3676 51.0728 21.2509C51.3085 21.133 51.5172 21.0007 51.6987 20.8541C51.8803 20.7075 52.0416 20.5468 52.1827 20.3718C52.3238 20.1969 52.4565 20.0019 52.5807 19.7868C52.5963 19.7639 52.6132 19.7451 52.6313 19.7304C52.6482 19.7116 52.667 19.699 52.6877 19.6926Z" fill="#E6F355"/>
<path d="M57.0894 13.9219C57.5508 13.8755 57.9705 13.9139 58.3488 14.037C58.7309 14.1553 59.0615 14.3464 59.3406 14.6101C59.6197 14.8738 59.8446 15.204 60.0151 15.6006C60.1895 15.9924 60.3021 16.4405 60.3528 16.945C60.4036 17.4495 60.3825 17.911 60.2896 18.3298C60.201 18.7481 60.0462 19.1142 59.8252 19.4283C59.6042 19.7423 59.3183 19.9954 58.9674 20.1874C58.6208 20.3791 58.2169 20.4981 57.7555 20.5445C57.2942 20.5909 56.8725 20.5549 56.4904 20.4366C56.1126 20.3178 55.782 20.1268 55.4986 19.8635C55.2194 19.5997 54.9926 19.272 54.8182 18.8801C54.6481 18.4878 54.5377 18.0395 54.4869 17.535C54.4362 17.0306 54.4551 16.5692 54.5437 16.1509C54.6362 15.7278 54.7929 15.3593 55.0139 15.0453C55.2392 14.7308 55.5252 14.4778 55.8718 14.2861C56.2222 14.0897 56.6281 13.9683 57.0894 13.9219ZM57.7068 20.0595C58.0905 20.0209 58.4181 19.9226 58.6897 19.7646C58.9651 19.6019 59.1853 19.3881 59.3503 19.1233C59.5196 18.858 59.6343 18.5481 59.6945 18.1937C59.7542 17.8349 59.7624 17.4399 59.719 17.0088C59.6761 16.5819 59.5897 16.1986 59.4597 15.8589C59.3297 15.5192 59.1553 15.2363 58.9366 15.01C58.7217 14.779 58.4631 14.6112 58.1608 14.5066C57.8628 14.4016 57.5219 14.3684 57.1382 14.407C56.7545 14.4456 56.4249 14.5462 56.1495 14.7089C55.8783 14.8712 55.6583 15.0872 55.4895 15.3567C55.3245 15.6216 55.21 15.9336 55.1459 16.2928C55.0862 16.6516 55.0778 17.0444 55.1207 17.4713C55.1641 17.9024 55.2508 18.2879 55.3808 18.6275C55.5146 18.9625 55.6888 19.2433 55.9032 19.47C56.1219 19.6962 56.3803 19.8619 56.6783 19.9669C56.9802 20.0672 57.323 20.0981 57.7068 20.0595Z" fill="#E6F355"/>
<path d="M64.1501 14.7512C64.4796 14.4052 64.8482 14.1365 65.2559 13.945C65.6679 13.7539 66.1135 13.6788 66.5928 13.7195C66.9468 13.7496 67.2529 13.8322 67.5111 13.9672C67.7736 14.1026 67.9843 14.2836 68.1433 14.5103C68.3024 14.7369 68.4146 15.003 68.4799 15.3087C68.5452 15.6143 68.5619 15.9549 68.53 16.3306L68.1796 20.4497L67.5579 20.3968L67.9082 16.2777C67.9596 15.6732 67.8617 15.1887 67.6143 14.8241C67.3674 14.4551 66.9611 14.2466 66.3955 14.1985C65.9766 14.1629 65.5746 14.2374 65.1892 14.4221C64.8085 14.6028 64.4595 14.871 64.1422 15.2268L63.7302 20.0713L63.1084 20.0184L63.6565 13.5742L63.9998 13.6034C64.1077 13.6125 64.1657 13.6718 64.1738 13.7812L64.1501 14.7512Z" fill="#E6F355"/>
<path d="M73.1373 15.8199C73.5255 15.5414 73.9377 15.346 74.3739 15.2338C74.8143 15.1228 75.2661 15.132 75.7294 15.2613C76.0717 15.3568 76.357 15.495 76.5855 15.6757C76.8182 15.8577 76.9915 16.0748 77.1055 16.327C77.2196 16.5793 77.2802 16.8617 77.2875 17.1742C77.2947 17.4866 77.2477 17.8244 77.1463 18.1875L76.0348 22.1693L75.4338 22.0015L76.5453 18.0197C76.7084 17.4354 76.7024 16.9411 76.5273 16.5368C76.3534 16.1283 75.9931 15.8478 75.4463 15.6952C75.0415 15.5822 74.6325 15.5805 74.2195 15.6901C73.8118 15.7968 73.419 15.9953 73.041 16.2857L71.7337 20.9686L71.1327 20.8009L72.8716 14.5715L73.2035 14.6642C73.3078 14.6933 73.3538 14.7623 73.3413 14.8714L73.1373 15.8199Z" fill="#E6F355"/>
<path d="M84.6646 21.5924C84.8149 21.28 84.9044 20.9792 84.9329 20.69C84.9673 20.3988 84.9458 20.1287 84.8684 19.8799C84.791 19.631 84.6626 19.4081 84.4833 19.2112C84.3097 19.0123 84.0902 18.8489 83.8247 18.7211C83.524 18.5764 83.232 18.4936 82.9487 18.4727C82.6655 18.4517 82.3937 18.4869 82.1334 18.578C81.877 18.671 81.6369 18.8152 81.4131 19.0104C81.1893 19.2057 80.9865 19.4471 80.8048 19.7348L84.6646 21.5924ZM80.6036 20.078L80.55 20.1892C80.3396 20.6266 80.2052 21.0356 80.147 21.4164C80.0888 21.7971 80.0989 22.1458 80.1773 22.4625C80.2576 22.7753 80.4033 23.0522 80.6143 23.2932C80.8253 23.5342 81.0948 23.7336 81.4228 23.8915C81.7157 24.0324 81.9845 24.1233 82.2293 24.1642C82.476 24.2012 82.6904 24.2154 82.8725 24.2069C83.0603 24.1963 83.2122 24.1804 83.3282 24.1593C83.446 24.1342 83.5245 24.1311 83.5635 24.1499C83.6143 24.1743 83.6439 24.2127 83.6525 24.2649L83.7146 24.5256C83.5645 24.5976 83.3869 24.6468 83.1819 24.6732C82.9807 24.7014 82.7666 24.7066 82.5396 24.6887C82.3183 24.6687 82.0881 24.6276 81.8487 24.5654C81.6133 24.505 81.3863 24.4221 81.1676 24.3169C80.7693 24.1252 80.4391 23.8821 80.1769 23.5876C79.9165 23.2892 79.7331 22.9508 79.6266 22.5726C79.5201 22.1943 79.4945 21.7828 79.5498 21.3381C79.6109 20.8915 79.7608 20.4202 79.9995 19.9243C80.2005 19.5065 80.4442 19.1501 80.7305 18.855C81.0225 18.5579 81.3409 18.3361 81.6856 18.1894C82.0361 18.0407 82.4082 17.9721 82.8018 17.9836C83.1993 17.9969 83.605 18.1032 84.0189 18.3024C84.3469 18.4603 84.6242 18.6635 84.8509 18.912C85.0775 19.1606 85.2417 19.444 85.3434 19.7622C85.447 20.0766 85.4812 20.4201 85.4462 20.7927C85.415 21.1673 85.3008 21.5595 85.1034 21.9695C85.0621 22.0554 85.0222 22.1084 84.9837 22.1283C84.9453 22.1483 84.8987 22.1451 84.844 22.1188L80.6036 20.078Z" fill="#E6F355"/>
<path d="M91.8638 24.1162C91.8336 24.1215 91.8047 24.1251 91.777 24.1269C91.7554 24.1276 91.7303 24.118 91.7019 24.0981C91.6664 24.0733 91.6346 24.0167 91.6066 23.9283C91.581 23.8363 91.5366 23.7259 91.4734 23.5971C91.4102 23.4682 91.3167 23.326 91.1928 23.1706C91.0749 23.014 90.9059 22.8587 90.6858 22.7047C90.3804 22.491 90.0703 22.356 89.7554 22.2995C89.4466 22.2421 89.1397 22.2574 88.8347 22.3454C88.5298 22.4335 88.2341 22.5915 87.9477 22.8195C87.6647 23.0499 87.3978 23.3444 87.1469 23.703C86.886 24.0757 86.6975 24.4357 86.5815 24.7829C86.469 25.1326 86.423 25.4628 86.4437 25.7734C86.4668 26.0805 86.5559 26.365 86.7111 26.627C86.8662 26.8889 87.0823 27.1168 87.3592 27.3106C87.6148 27.4895 87.8489 27.6084 88.0616 27.6673C88.2778 27.7287 88.4658 27.7624 88.6255 27.7684C88.7888 27.7769 88.9235 27.7734 89.0297 27.7578C89.1358 27.7421 89.2102 27.7492 89.2528 27.779C89.2954 27.8088 89.3185 27.8514 89.322 27.9068L89.3359 28.1704C89.1797 28.2198 89.0072 28.2471 88.8183 28.2525C88.6295 28.2578 88.4333 28.2396 88.2299 28.1977C88.0265 28.1558 87.8201 28.088 87.6106 27.9943C87.4022 27.9067 87.1986 27.7933 86.9998 27.6541C86.6625 27.4181 86.3959 27.1416 86.1999 26.8246C86.0099 26.5065 85.8945 26.1613 85.8536 25.7889C85.8188 25.4154 85.8626 25.0203 85.985 24.6035C86.111 24.1892 86.3243 23.7673 86.625 23.3377C86.9082 22.933 87.2199 22.601 87.5599 22.3418C87.9 22.0827 88.2575 21.9044 88.6323 21.8071C89.0072 21.7098 89.3879 21.6986 89.7746 21.7734C90.1672 21.8472 90.5552 22.0183 90.9387 22.2866C91.283 22.5276 91.5498 22.7964 91.7391 23.0928C91.9283 23.3892 92.0565 23.701 92.1237 24.0283L91.8638 24.1162Z" fill="#E6F355"/>
<path d="M92.0076 31.6777C91.6871 31.3796 91.519 31.0577 91.5034 30.7118C91.4909 30.3688 91.6573 30.0117 92.0025 29.6404L95.0124 26.4035L94.3317 25.7706C94.2968 25.7381 94.277 25.702 94.2725 25.6623C94.268 25.6226 94.282 25.5853 94.3145 25.5504L94.4782 25.3743L95.3406 26.0696L97.0305 24.4813C97.0634 24.4586 97.0997 24.445 97.1394 24.4405C97.1791 24.436 97.2164 24.45 97.2513 24.4824L97.4655 24.6816L95.7836 26.4905L97.2783 27.8803L96.964 28.2183L95.4693 26.8284L92.4817 30.0415C92.3607 30.1716 92.2718 30.299 92.215 30.4237C92.1643 30.5482 92.1395 30.6672 92.1406 30.7806C92.1448 30.897 92.1733 31.0063 92.2261 31.1086C92.2789 31.211 92.3513 31.3049 92.4433 31.3905C92.5575 31.4967 92.6707 31.5723 92.7827 31.6173C92.8977 31.6591 93.003 31.689 93.0987 31.707C93.1974 31.7218 93.2805 31.7311 93.3481 31.7347C93.4186 31.7352 93.465 31.7458 93.4872 31.7665C93.5126 31.7901 93.5232 31.8296 93.5191 31.8849L93.457 32.1999C93.2124 32.2211 92.9582 32.1858 92.6942 32.0942C92.4364 32.0024 92.2075 31.8636 92.0076 31.6777Z" fill="#E6F355"/>
<path d="M99.8284 30.2872L94.9972 34.5869L94.5867 34.1256L99.4179 29.8259L99.8284 30.2872ZM101.671 29.004C101.613 29.0559 101.546 29.0919 101.471 29.1121C101.403 29.1327 101.332 29.1408 101.258 29.1365C101.185 29.1322 101.114 29.1143 101.045 29.0827C100.976 29.051 100.916 29.0061 100.864 28.9478C100.812 28.8896 100.775 28.8245 100.751 28.7525C100.728 28.6805 100.718 28.6078 100.722 28.5344C100.727 28.461 100.743 28.3914 100.771 28.3255C100.803 28.2567 100.848 28.1964 100.906 28.1446C100.964 28.0927 101.03 28.0551 101.102 28.0317C101.177 28.0053 101.251 27.9943 101.324 27.9986C101.398 28.0029 101.469 28.0208 101.538 28.0524C101.606 28.0841 101.667 28.129 101.719 28.1873C101.77 28.2455 101.808 28.3107 101.832 28.3826C101.855 28.4546 101.865 28.5273 101.86 28.6007C101.856 28.6741 101.836 28.7466 101.802 28.8182C101.773 28.8902 101.729 28.9522 101.671 29.004Z" fill="#E6F355"/>
<path d="M103.307 34.4901C103.569 34.8728 103.736 35.2597 103.809 35.6507C103.888 36.0428 103.879 36.4245 103.781 36.7959C103.683 37.1672 103.501 37.5227 103.234 37.8623C102.974 38.2031 102.634 38.5165 102.216 38.8027C101.797 39.0888 101.382 39.2913 100.97 39.4103C100.56 39.5329 100.165 39.5723 99.7832 39.5287C99.4017 39.4851 99.0426 39.3552 98.7059 39.1392C98.3717 38.9267 98.0738 38.6291 97.8121 38.2464C97.5504 37.8636 97.3801 37.4761 97.301 37.084C97.2243 36.6955 97.2337 36.3138 97.3291 35.9389C97.4269 35.5675 97.6061 35.2115 97.8666 34.8707C98.1295 34.5335 98.4702 34.2218 98.8887 33.9357C99.3073 33.6496 99.7214 33.4452 100.131 33.3227C100.547 33.2013 100.945 33.1624 101.327 33.206C101.711 33.2532 102.07 33.3831 102.404 33.5955C102.744 33.8091 103.045 34.1073 103.307 34.4901ZM98.2146 37.9712C98.4322 38.2896 98.6754 38.5302 98.9441 38.6929C99.2189 38.8568 99.512 38.9477 99.8235 38.9657C100.137 38.9873 100.464 38.9396 100.804 38.8227C101.148 38.7033 101.499 38.5214 101.856 38.2768C102.211 38.0347 102.506 37.7752 102.742 37.4985C102.977 37.2217 103.142 36.9331 103.236 36.6327C103.336 36.3335 103.36 36.0261 103.307 35.7106C103.256 35.3987 103.122 35.0836 102.904 34.7652C102.687 34.4468 102.441 34.2057 102.166 34.0418C101.894 33.8815 101.599 33.7918 101.281 33.7726C100.97 33.7546 100.641 33.8035 100.295 33.9193C99.9512 34.0387 99.6024 34.2195 99.2482 34.4616C98.8905 34.7061 98.5936 34.9668 98.3577 35.2436C98.1277 35.5215 97.9646 35.8089 97.8683 36.1057C97.7745 36.406 97.7528 36.7122 97.8033 37.0241C97.8598 37.3371 97.9969 37.6529 98.2146 37.9712Z" fill="#E6F355"/>
<path d="M105.924 41.0392C106.385 41.1626 106.798 41.3573 107.161 41.6233C107.527 41.8933 107.806 42.2483 108 42.6885C108.143 43.0136 108.218 43.3219 108.223 43.6132C108.23 43.9084 108.172 44.1801 108.049 44.4283C107.927 44.6765 107.747 44.9026 107.51 45.1064C107.273 45.3103 106.982 45.4882 106.637 45.6402L102.854 47.3073L102.603 46.7363L106.386 45.0692C106.941 44.8246 107.319 44.5063 107.521 44.1145C107.726 43.7209 107.714 43.2644 107.485 42.7449C107.316 42.3603 107.058 42.0431 106.711 41.7934C106.37 41.546 105.967 41.3683 105.503 41.2603L101.054 43.221L100.802 42.6499L106.72 40.0419L106.859 40.3571C106.903 40.4563 106.879 40.5356 106.787 40.5952L105.924 41.0392Z" fill="#E6F355"/>
<path d="M110.28 52.2701C110.213 52.2514 110.171 52.2106 110.155 52.1477C110.143 52.1015 110.153 52.0363 110.185 51.952C110.222 51.8667 110.256 51.7552 110.288 51.6174C110.325 51.4827 110.347 51.3207 110.352 51.1315C110.362 50.9412 110.334 50.7201 110.27 50.4682C110.212 50.2414 110.126 50.0421 110.011 49.8703C109.901 49.7015 109.774 49.5639 109.63 49.4573C109.488 49.355 109.334 49.2868 109.169 49.2529C109.008 49.2179 108.848 49.2207 108.688 49.2613C108.491 49.3116 108.34 49.4037 108.236 49.5377C108.131 49.6716 108.053 49.8301 108.001 50.0133C107.951 50.2006 107.918 50.4077 107.905 50.6348C107.891 50.8619 107.878 51.0911 107.865 51.3224C107.854 51.5578 107.833 51.7912 107.802 52.0226C107.776 52.2529 107.722 52.4633 107.641 52.6539C107.561 52.8487 107.446 53.019 107.295 53.1647C107.144 53.3104 106.943 53.4153 106.691 53.4795C106.418 53.5491 106.152 53.5655 105.892 53.5288C105.632 53.4921 105.392 53.4013 105.172 53.2562C104.952 53.1152 104.758 52.9212 104.587 52.6739C104.417 52.4266 104.287 52.1266 104.197 51.7739C104.085 51.333 104.057 50.9353 104.115 50.5808C104.176 50.2253 104.288 49.8927 104.451 49.583L104.7 49.667C104.739 49.6794 104.77 49.6961 104.793 49.717C104.818 49.7421 104.836 49.7778 104.847 49.824C104.861 49.8786 104.844 49.9522 104.796 50.0449C104.749 50.1418 104.703 50.2655 104.656 50.416C104.614 50.5655 104.583 50.7432 104.564 50.9493C104.546 51.1596 104.573 51.4054 104.644 51.6867C104.712 51.9513 104.807 52.1753 104.93 52.3586C105.057 52.5409 105.2 52.6832 105.36 52.7855C105.521 52.8878 105.693 52.9511 105.878 52.9755C106.069 53.0031 106.258 52.9927 106.447 52.9446C106.657 52.8911 106.819 52.7963 106.932 52.6602C107.044 52.5242 107.128 52.3619 107.183 52.1736C107.238 51.9852 107.272 51.7775 107.286 51.5504C107.301 51.3275 107.314 51.0983 107.326 50.8629C107.337 50.6274 107.356 50.3945 107.382 50.1642C107.41 49.9381 107.463 49.7277 107.543 49.5329C107.623 49.3381 107.737 49.1684 107.883 49.0237C108.034 48.878 108.239 48.772 108.5 48.7057C108.722 48.649 108.949 48.6427 109.179 48.6869C109.41 48.731 109.625 48.8215 109.825 48.9583C110.027 49.0993 110.206 49.2861 110.364 49.5187C110.521 49.7513 110.641 50.0272 110.722 50.3463C110.819 50.7285 110.851 51.0804 110.817 51.4022C110.784 51.7281 110.685 52.0418 110.52 52.3431L110.28 52.2701Z" fill="#E6F355"/>
<path d="M109.542 59.7183C109.633 59.7145 109.72 59.7281 109.804 59.7592C109.888 59.7904 109.961 59.8328 110.024 59.8865C110.087 59.9446 110.138 60.0118 110.176 60.0883C110.214 60.1647 110.235 60.2462 110.238 60.3328C110.242 60.4237 110.228 60.5111 110.197 60.5948C110.166 60.6785 110.122 60.752 110.064 60.8152C110.006 60.8784 109.936 60.929 109.855 60.9672C109.775 61.0053 109.689 61.0263 109.598 61.0301C109.511 61.0338 109.426 61.0201 109.342 60.9889C109.263 60.9576 109.192 60.9129 109.128 60.8549C109.07 60.7967 109.021 60.7272 108.983 60.6464C108.945 60.5656 108.924 60.4797 108.92 60.3888C108.916 60.3022 108.93 60.2192 108.961 60.1398C108.993 60.0604 109.035 59.9892 109.089 59.9262C109.147 59.8674 109.215 59.819 109.291 59.781C109.372 59.7429 109.455 59.722 109.542 59.7183Z" fill="#E6F355"/>
</svg>
